<?xml version="1.0" encoding="UTF-8"?>
<svg viewBox="0 0 96 56" version="1.1" xmlns="http://www.w3.org/2000/svg" xmlns:xlink="http://www.w3.org/1999/xlink">
    <title>assets/4k.contrast-high</title>
    <g id="assets/4k.contrast-high" stroke="none" stroke-width="1" fill="none" fill-rule="evenodd">
        <g id="4k.theme-dark" transform="translate(2.000000, 2.000000)" fill-rule="nonzero">
            <path d="M15.3833112,0 L76.6166888,0 C81.9658012,0 83.9055187,0.556953667 85.8610742,1.60279622 C87.8166298,2.64863878 89.3513612,4.18337022 90.3972038,6.13892578 C91.4430463,8.09448133 92,10.0341988 92,15.3833112 L92,36.6166888 C92,41.9658012 91.4430463,43.9055187 90.3972038,45.8610742 C89.3513612,47.8166298 87.8166298,49.3513612 85.8610742,50.3972038 C83.9055187,51.4430463 81.9658012,52 76.6166888,52 L15.3833112,52 C10.0341988,52 8.09448133,51.4430463 6.13892578,50.3972038 C4.18337022,49.3513612 2.64863878,47.8166298 1.60279622,45.8610742 C0.556953667,43.9055187 0,41.9658012 0,36.6166888 L0,15.3833112 C0,10.0341988 0.556953667,8.09448133 1.60279622,6.13892578 C2.64863878,4.18337022 4.18337022,2.64863878 6.13892578,1.60279622 C8.09448133,0.556953667 10.0341988,0 15.3833112,0 Z" id="4K-path" stroke="#000000" stroke-width="4" fill="#FFFFFF"></path>
            <path d="M35.5428125,40 L35.5428125,34.9804688 L21.519375,34.9804688 L21.519375,29.9609375 C23.9803125,25.2734375 27.0467187,20.3320312 32.8279687,11.8164062 L41.1482812,11.8164062 L41.1482812,30.2539062 L44.8201562,30.2539062 L44.8201562,34.9804688 L41.1482812,34.9804688 L41.1482812,40 L35.5428125,40 Z M26.6951562,30.2734375 L26.6951562,30.4296875 L35.66,30.4296875 L35.66,15.9960938 L35.5428125,15.9960938 C31.44125,22.0117188 28.9803125,25.859375 26.6951562,30.2734375 Z M53.9882813,40 L53.9882813,31.3867188 L56.625,28.2226562 L64.984375,40 L72.0351563,40 L60.8828125,24.3164062 L71.3125,11.8164062 L64.75,11.8164062 L54.1640625,24.6679688 L53.9882813,24.6679688 L53.9882813,11.8164062 L48.0898438,11.8164062 L48.0898438,40 L53.9882813,40 Z" id="4K" fill="#000000"></path>
        </g>
    </g>
</svg>