<?xml version="1.0" encoding="UTF-8"?>
<svg  viewBox="0 0 54 50" version="1.1" xmlns="http://www.w3.org/2000/svg" xmlns:xlink="http://www.w3.org/1999/xlink">
    <title>Asset/Apple Music Branding/Audio/Apple Digital Masters</title>
    <g id="Asset/Apple-Music-Branding/Audio/Apple-Digital-Masters" stroke="none" stroke-width="1" fill="none" fill-rule="evenodd">
        <path d="M52.9954506,8.29942373 C53.002836,12.4376003 53,25.3523044 52.9974648,33.9321647 L52.996122,40.7263688 C52.996122,45.1251805 50.9725287,47.2088997 49.2752348,48.1813474 C48.4688859,48.6440937 47.4429899,49 46.196204,49 C44.2457931,49 41.7542355,48.1296287 38.7141458,45.4382147 L26.8868004,35.6722268 C25.9032025,34.8590183 25.7554949,33.3925209 26.557144,32.3955749 C27.3581217,31.3986289 28.8056556,31.2495974 29.7899249,32.0607644 L41.6474833,41.8532921 C41.668968,41.8709854 41.6897813,41.8886786 41.7099233,41.9077329 C43.963806,43.9091105 45.9451012,44.7379707 47.0132953,44.1275539 C47.3926351,43.9104715 48.4010748,43.3320387 48.4010748,40.7263688 L48.4024175,33.9314842 C48.4044317,25.3543459 48.4077887,12.4444054 48.4004034,8.30758984 C48.3977178,6.61244136 47.8082304,5.32559841 46.8246325,4.86489367 C44.6446035,3.84412983 42.043608,6.68797788 41.027783,7.95712759 C41.0009271,7.99115305 40.9727284,8.024498 40.9438583,8.05648194 C38.7906852,10.457999 29.7724686,22.9181229 23.1880693,32.0165313 C18.9300638,37.900214 15.2461036,42.9911035 13.9550054,44.6392969 C10.5114056,49.5396438 7.05706335,49.4321234 4.76021112,48.4732859 C1.73489218,47.2116218 0,44.0009792 0,39.665455 L0.000671397902,24.7500537 C0.0543832301,20.6942188 1.37435151,18.0824244 4.03577279,16.7343356 C7.91846686,14.7676639 11.3519957,17.171903 13.5951361,19.1515043 L18.0552324,22.9977425 C19.021374,23.8306858 19.1388686,25.3005857 18.3164062,26.280519 C17.4939437,27.2590913 16.0437243,27.3781804 15.0775827,26.5452371 L10.5986873,22.6813057 C7.67072103,20.0987732 6.60319837,20.639778 6.09025037,20.9004131 C5.61892904,21.1385913 4.63801671,21.6360435 4.59504724,24.7820377 L4.59571864,32.0859432 L4.59504724,39.665455 C4.59504724,41.0482497 4.84413586,43.4722236 6.50987406,44.1670235 C6.96441044,44.3568856 8.17292666,44.8625039 10.2415036,41.8954837 C10.2670167,41.8580557 10.2938726,41.8219887 10.3220713,41.7866022 C11.5164882,40.2704277 15.2085053,35.16865 19.4832957,29.2618299 C26.816975,19.1290475 35.1228384,7.65225946 37.4989156,4.97377514 C42.5625986,-1.31957417 47.051565,-0.157944927 48.7495303,0.63620934 C51.4022234,1.87677766 52.989408,4.7417215 52.9954506,8.29942373" id="Apple-Digital-Master-Symbol" fill="#000000"></path>
    </g>
</svg>