<?xml version="1.0" encoding="UTF-8"?>
<svg viewBox="0 0 96 56" version="1.1" xmlns="http://www.w3.org/2000/svg" xmlns:xlink="http://www.w3.org/1999/xlink">
    <title>assets/cc.contrast-high</title>
    <g id="assets/cc.contrast-high" stroke="none" stroke-width="1" fill="none" fill-rule="evenodd">
        <g id="cc.theme-dark" transform="translate(4.000000, 4.000000)">
            <path d="M12.819426,-1.42475429e-15 L75.180574,5.17920154e-16 C79.6381677,-3.00926524e-16 81.2545989,0.464128056 82.8842285,1.33566352 C84.5138581,2.20719898 85.792801,3.48614185 86.6643365,5.11577148 C87.5358719,6.74540111 88,8.3618323 88,12.819426 L88,35.180574 C88,39.6381677 87.5358719,41.2545989 86.6643365,42.8842285 C85.792801,44.5138581 84.5138581,45.792801 82.8842285,46.6643365 C81.2545989,47.5358719 79.6381677,48 75.180574,48 L12.819426,48 C8.3618323,48 6.74540111,47.5358719 5.11577148,46.6643365 C3.48614185,45.792801 2.20719898,44.5138581 1.33566352,42.8842285 C0.464128056,41.2545989 2.00617683e-16,39.6381677 -3.45280103e-16,35.180574 L3.45280103e-16,12.819426 C-2.00617683e-16,8.3618323 0.464128056,6.74540111 1.33566352,5.11577148 C2.20719898,3.48614185 3.48614185,2.20719898 5.11577148,1.33566352 C6.74540111,0.464128056 8.3618323,8.27823274e-16 12.819426,-1.42475429e-15 Z" id="Rectangle" stroke="#000000" stroke-width="8" fill="#000000"></path>
            <path d="M13.3833112,0 L74.6166888,0 C79.3994068,0 81.1618448,0.4272866 82.9178765,1.36642262 C84.5197398,2.22310849 85.7768915,3.48026019 86.6335774,5.0821235 C87.5727134,6.83815518 88,8.6005932 88,13.3833112 L88,13.3833112 L88,34.6166888 C88,39.3994068 87.5727134,41.1618448 86.6335774,42.9178765 C85.7768915,44.5197398 84.5197398,45.7768915 82.9178765,46.6335774 C81.1618448,47.5727134 79.3994068,48 74.6166888,48 L74.6166888,48 L13.3833112,48 C8.6005932,48 6.83815518,47.5727134 5.0821235,46.6335774 C3.48026019,45.7768915 2.22310849,44.5197398 1.36642262,42.9178765 C0.4272866,41.1618448 0,39.3994068 0,34.6166888 L0,34.6166888 L0,13.3833112 C0,8.6005932 0.4272866,6.83815518 1.36642262,5.0821235 C2.22310849,3.48026019 3.48026019,2.22310849 5.0821235,1.36642262 C6.83815518,0.4272866 8.6005932,0 13.3833112,0 L13.3833112,0 Z" id="Rectangle" stroke="#FFFFFF" stroke-width="4"></path>
            <g id="CC" transform="translate(17.113442, 9.328125)" fill="#FFFFFF" fill-rule="nonzero">
                <path d="M13.4179687,29.1601562 C20.234375,29.1601562 25.1757812,24.8828125 25.7226562,18.8867187 L25.7421875,18.671875 L20,18.671875 L19.9609375,18.8671875 C19.1992187,22.2070312 16.8164062,24.1601562 13.4179687,24.1601562 C8.90625,24.1601562 6.015625,20.4882812 6.015625,14.5507812 L6.015625,14.53125 C6.015625,8.6328125 8.90625,5 13.4179687,5 C16.9335937,5 19.2382812,7.03125 19.9023437,10.1367188 L19.9804687,10.46875 L25.7226562,10.46875 L25.703125,10.2929688 C25.15625,4.31640625 20.2539062,0 13.4179687,0 C5.1953125,0 0,5.46875 0,14.5507812 L0,14.5703125 C0,23.6523437 5.17578125,29.1601562 13.4179687,29.1601562 Z" id="Path"></path>
                <path d="M41.7693702,29.1601562 C48.5857764,29.1601562 53.5271827,24.8828125 54.0740577,18.8867187 L54.0935889,18.671875 L48.3514014,18.671875 L48.3123389,18.8671875 C47.5506202,22.2070312 45.1678077,24.1601562 41.7693702,24.1601562 C37.2576514,24.1601562 34.3670264,20.4882812 34.3670264,14.5507812 L34.3670264,14.53125 C34.3670264,8.6328125 37.2576514,5 41.7693702,5 C45.2849952,5 47.5896827,7.03125 48.2537452,10.1367188 L48.3318702,10.46875 L54.0740577,10.46875 L54.0545264,10.2929688 C53.5076514,4.31640625 48.6053077,0 41.7693702,0 C33.5467139,0 28.3514014,5.46875 28.3514014,14.5507812 L28.3514014,14.5703125 C28.3514014,23.6523437 33.5271827,29.1601562 41.7693702,29.1601562 Z" id="Path"></path>
            </g>
        </g>
    </g>
</svg>