<?xml version="1.0" encoding="UTF-8"?>
<svg viewBox="0 0 100 100" version="1.1" xmlns="http://www.w3.org/2000/svg" xmlns:xlink="http://www.w3.org/1999/xlink">
    <g id="assets/default_artwork_playlist" stroke="none" stroke-width="1" fill="none" fill-rule="evenodd">
        <rect id="Fill" fill="#8E8E93" opacity="0.18" x="0" y="0" width="100" height="100"></rect>
        <g id="Symbol" transform="translate(30.311478, 31.250355)" fill="#8E8E93" fill-rule="nonzero" opacity="0.34">
            <path d="M38.984375,8.55042614 L38.984375,1.40198864 C38.984375,0.933238636 38.8216146,0.565400095 38.4960938,0.298473011 C38.1705729,0.031545928 37.7799479,-0.056344697 37.3242188,0.0348011364 L27.7148438,2.12464489 C26.5820312,2.37204072 26.015625,2.98401989 26.015625,3.96058239 L26.09375,25.3473011 C26.1458333,26.4410511 25.6770833,27.0920928 24.6875,27.3004261 L21.6015625,27.9449574 C19.7265625,28.3355824 18.3333333,28.9963897 17.421875,29.9273793 C16.5104167,30.8583688 16.0546875,32.0400095 16.0546875,33.4723011 C16.0546875,34.9045928 16.5494792,36.0699574 17.5390625,36.9683949 C18.5286458,37.8668324 19.8046875,38.3160511 21.3671875,38.3160511 C22.0703125,38.3160511 22.8190104,38.1825876 23.6132812,37.9156605 C24.4075521,37.6487334 25.1627604,37.2190459 25.8789062,36.626598 C26.5950521,36.0341501 27.1744792,35.2561553 27.6171875,34.2926136 C28.0598958,33.329072 28.28125,32.157197 28.28125,30.7769886 L28.28125,13.1988636 C28.28125,12.6519886 28.3658854,12.2711293 28.5351562,12.0562855 C28.7044271,11.8414418 29.0494792,11.6754261 29.5703125,11.5582386 L38.0273438,9.70276989 C38.3268229,9.63766572 38.5611979,9.50420218 38.7304688,9.30237926 C38.8997396,9.10055634 38.984375,8.8499053 38.984375,8.55042614 Z M1.0546875,22.8277699 L18.90625,22.8277699 C19.2057292,22.8277699 19.4563802,22.7301136 19.6582031,22.5348011 C19.860026,22.3394886 19.9609375,22.0920928 19.9609375,21.7926136 C19.9609375,21.5061553 19.860026,21.2620147 19.6582031,21.0601918 C19.4563802,20.8583688 19.2057292,20.7574574 18.90625,20.7574574 L1.0546875,20.7574574 C0.768229167,20.7574574 0.520833333,20.8583688 0.3125,21.0601918 C0.104166667,21.2620147 0,21.5061553 0,21.7926136 C0,22.0920928 0.100911458,22.3394886 0.302734375,22.5348011 C0.504557292,22.7301136 0.755208333,22.8277699 1.0546875,22.8277699 Z M1.0546875,16.0504261 L18.90625,16.0504261 C19.2057292,16.0504261 19.4563802,15.9462595 19.6582031,15.7379261 C19.860026,15.5295928 19.9609375,15.2756866 19.9609375,14.9762074 C19.9609375,14.7027699 19.860026,14.4683949 19.6582031,14.2730824 C19.4563802,14.0777699 19.2057292,13.9801136 18.90625,13.9801136 L1.0546875,13.9801136 C0.768229167,13.9801136 0.520833333,14.0777699 0.3125,14.2730824 C0.104166667,14.4683949 0,14.7027699 0,14.9762074 C0,15.2756866 0.100911458,15.5295928 0.302734375,15.7379261 C0.504557292,15.9462595 0.755208333,16.0504261 1.0546875,16.0504261 Z M1.0546875,9.25355114 L18.90625,9.25355114 C19.2057292,9.25355114 19.4563802,9.15263968 19.6582031,8.95081676 C19.860026,8.74899384 19.9609375,8.50485322 19.9609375,8.21839489 C19.9609375,7.93193655 19.860026,7.68779593 19.6582031,7.48597301 C19.4563802,7.28415009 19.2057292,7.18323864 18.90625,7.18323864 L1.0546875,7.18323864 C0.768229167,7.18323864 0.520833333,7.28415009 0.3125,7.48597301 C0.104166667,7.68779593 0,7.93193655 0,8.21839489 C0,8.50485322 0.104166667,8.74899384 0.3125,8.95081676 C0.520833333,9.15263968 0.768229167,9.25355114 1.0546875,9.25355114 Z" id="Shape"></path>
        </g>
    </g>
</svg>