<?xml version="1.0" encoding="UTF-8"?>
<svg viewBox="0 0 100 100" version="1.1" xmlns="http://www.w3.org/2000/svg" xmlns:xlink="http://www.w3.org/1999/xlink">
    <g id="assets/default_artwork_playlist_genius" stroke="none" stroke-width="1" fill="none" fill-rule="evenodd">
        <rect id="Fill" fill="#8E8E93" opacity="0.18" x="0" y="0" width="100" height="100"></rect>
        <g id="Symbol" transform="translate(27.040772, 25.141968)" fill="#8E8E93" fill-rule="nonzero" opacity="0.34">
            <path d="M29.2706299,8.7387085 C29.895223,8.7387085 30.4661051,8.58154297 30.9832764,8.26721191 C31.5004476,7.95288086 31.9161479,7.53814697 32.2303772,7.02301025 C32.5446065,6.50787354 32.7017212,5.93597412 32.7017212,5.30731201 C32.7017212,4.68292236 32.5446065,4.11214193 32.2303772,3.5949707 C31.9161479,3.07779948 31.4982096,2.66204834 30.9765625,2.34771729 C30.4549154,2.03338623 29.8862712,1.8762207 29.2706299,1.8762207 C28.6419678,1.8762207 28.0668132,2.03114827 27.545166,2.34100342 C27.0235189,2.65085856 26.6078186,3.06559245 26.2980652,3.58520508 C25.9883118,4.10481771 25.8334351,4.67885335 25.8334351,5.30731201 C25.8334351,5.93597412 25.9883118,6.50787354 26.2980652,7.02301025 C26.6078186,7.53814697 27.0235189,7.95288086 27.545166,8.26721191 C28.0668132,8.58154297 28.6419678,8.7387085 29.2706299,8.7387085 Z M3.43109131,33.5913086 C4.36960856,33.5913086 5.17608643,33.2530212 5.8505249,32.5764465 C6.52496338,31.8998718 6.86218262,31.0944621 6.86218262,30.1602173 C6.86218262,29.544576 6.70506795,28.9759318 6.39083862,28.4542847 C6.07660929,27.9326375 5.65867106,27.513682 5.13702393,27.1974182 C4.61537679,26.8811544 4.04673258,26.7230225 3.43109131,26.7230225 C2.49684652,26.7230225 1.69143677,27.061259 1.01486206,27.7377319 C0.338287354,28.4142049 0,29.2217 0,30.1602173 C0,30.7846069 0.154927572,31.3576253 0.464782715,31.8792725 C0.774637858,32.4009196 1.190389,32.8166707 1.71203613,33.1265259 C2.23368327,33.436381 2.80670166,33.5913086 3.43109131,33.5913086 Z M37.142334,41.852417 C37.7667236,41.852417 38.339742,41.6975403 38.8613892,41.3877869 C39.3830363,41.0780334 39.7987874,40.6623332 40.1086426,40.140686 C40.4184977,39.6190389 40.5734253,39.0459188 40.5734253,38.4213257 C40.5734253,37.8058879 40.4163106,37.2373454 40.1020813,36.7156982 C39.787852,36.1940511 39.3699137,35.7750448 38.8482666,35.4586792 C38.3266195,35.1423136 37.7579753,34.9841309 37.142334,34.9841309 C36.5136719,34.9841309 35.9407552,35.1412964 35.423584,35.4556274 C34.9064128,35.7699585 34.4907125,36.1857096 34.1764832,36.7028809 C33.8622538,37.2200521 33.7051392,37.792867 33.7051392,38.4213257 C33.7051392,39.3557739 34.0434265,40.1612345 34.7200012,40.8377075 C35.3965759,41.5141805 36.2040202,41.852417 37.142334,41.852417 Z M23.3691406,49.6588135 C24.7953288,49.6588135 26.093394,49.0855408 27.2633362,47.9389954 C28.4332784,46.79245 29.4390361,45.1370748 30.2806091,42.9728699 C31.1221822,40.808665 31.7691549,38.191274 32.2215271,35.120697 C32.6738993,32.05012 32.9000854,28.5953776 32.9000854,24.7564697 C32.9000854,20.9379069 32.6738993,17.5040181 32.2215271,14.4548035 C31.7691549,11.4055888 31.1221822,8.8041687 30.2806091,6.65054321 C29.4390361,4.49691772 28.4332784,2.85008748 27.2633362,1.71005249 C26.093394,0.570017497 24.7953288,0 23.3691406,0 C21.9380697,0 20.6375631,0.570017497 19.4676208,1.71005249 C18.2976786,2.85008748 17.2918701,4.49691772 16.4501953,6.65054321 C15.6085205,8.8041687 14.9604797,11.4055888 14.506073,14.4548035 C14.0516663,17.5040181 13.8244629,20.9379069 13.8244629,24.7564697 C13.8244629,28.5953776 14.0516663,32.05012 14.506073,35.120697 C14.9604797,38.191274 15.6085205,40.808665 16.4501953,42.9728699 C17.2918701,45.1370748 18.2976786,46.79245 19.4676208,47.9389954 C20.6375631,49.0855408 21.9380697,49.6588135 23.3691406,49.6588135 Z M23.3691406,47.4737549 C21.9321696,47.4737549 20.673879,46.5556844 19.5942688,44.7195435 C18.5146586,42.8834025 17.6740519,40.268809 17.0724487,36.8757629 C16.4708455,33.4827169 16.1700439,29.4429525 16.1700439,24.7564697 C16.1700439,20.1035563 16.4708455,16.0899862 17.0724487,12.7157593 C17.6740519,9.34153239 18.5146586,6.74280802 19.5942688,4.91958618 C20.673879,3.09636434 21.9321696,2.18475342 23.3691406,2.18475342 C24.8012288,2.18475342 26.0592651,3.09636434 27.1432495,4.91958618 C28.2272339,6.74280802 29.0677897,9.34153239 29.664917,12.7157593 C30.2620443,16.0899862 30.5606079,20.1035563 30.5606079,24.7564697 C30.5606079,29.4429525 30.2620443,33.4827169 29.664917,36.8757629 C29.0677897,40.268809 28.2272339,42.8834025 27.1432495,44.7195435 C26.0592651,46.5556844 24.8012288,47.4737549 23.3691406,47.4737549 Z M1.86279297,37.2045898 C2.58056641,38.4395345 3.72706095,39.2770386 5.30227661,39.7171021 C6.87749227,40.1571655 8.81266276,40.1998901 11.1077881,39.8452759 C13.4029134,39.4906616 15.9927368,38.7442525 18.8772583,37.6060486 C21.7617798,36.4678446 24.8675537,34.9399821 28.1945801,33.0224609 C31.5010579,31.1132813 34.3618266,29.2000834 36.776886,27.2828674 C39.1919454,25.3656514 41.1221313,23.5022481 42.5674438,21.6926575 C44.0127563,19.8830668 44.9358622,18.1870015 45.3367615,16.6044617 C45.7376607,15.0219218 45.5813599,13.6131795 44.8678589,12.3782349 C44.1592407,11.1343384 43.0172729,10.2923584 41.4419556,9.85229492 C39.8666382,9.41223145 37.9367065,9.36742147 35.6521606,9.71786499 C33.3676147,10.0683085 30.7894389,10.8095805 27.9176331,11.9416809 C25.0458272,13.0737813 21.9611613,14.5945231 18.6636353,16.5039062 C15.3317261,18.421224 12.4509176,20.3437805 10.0212097,22.2715759 C7.59150187,24.1993713 5.64865112,26.0691325 4.19265747,27.8808594 C2.73666382,29.6925863 1.80496216,31.3884989 1.39755249,32.9685974 C0.990142822,34.5486959 1.14522298,35.9606934 1.86279297,37.2045898 Z M3.74328613,36.1120605 C3.02530924,34.8657227 3.1914266,33.3178202 4.24163818,31.4683533 C5.29184977,29.6188863 7.13678996,27.5840251 9.77645874,25.3637695 C12.4161275,23.143514 15.764974,20.8575439 19.822998,18.5058594 C23.8433838,16.1794027 27.4656169,14.4338481 30.6896973,13.2691956 C33.9137777,12.1045431 36.5886943,11.5343221 38.714447,11.5585327 C40.8401998,11.5827433 42.264506,12.2201538 42.9873657,13.4707642 C43.7102254,14.7171021 43.548584,16.2639872 42.5024414,18.1114197 C41.4562988,19.9588521 39.6207682,21.9851685 36.9958496,24.1903687 C34.370931,26.3955688 31.0462443,28.6592611 27.0217896,30.9814453 C22.9590861,33.3203125 19.3082682,35.0793966 16.0693359,36.2586975 C12.8304036,37.4379985 10.1470947,38.0177816 8.01940918,37.9980469 C5.89172363,37.9783122 4.46634928,37.3496501 3.74328613,36.1120605 Z M44.8678589,37.2045898 C45.5813599,35.9606934 45.7344055,34.5486959 45.3269958,32.9685974 C44.9195862,31.3884989 43.9901225,29.6925863 42.5386047,27.8808594 C41.087087,26.0691325 39.1453044,24.1993713 36.7132568,22.2715759 C34.2812093,20.3437805 31.4037069,18.421224 28.0807495,16.5039062 C24.7699992,14.5945231 21.6819763,13.0737813 18.8166809,11.9416809 C15.9513855,10.8095805 13.3742269,10.0683085 11.0852051,9.71786499 C8.79618327,9.36742147 6.86630249,9.41223145 5.29556274,9.85229492 C3.724823,10.2923584 2.58056641,11.1343384 1.86279297,12.3782349 C1.14522298,13.6131795 0.990142822,15.0219218 1.39755249,16.6044617 C1.80496216,18.1870015 2.72908529,19.8830668 4.16992187,21.6926575 C5.61075846,23.5022481 7.53768921,25.3656514 9.95071411,27.2828674 C12.363739,29.2000834 15.2255249,31.1132813 18.5360718,33.0224609 C21.867981,34.9399821 24.9749756,36.4678446 27.8570557,37.6060486 C30.7391357,38.7442525 33.3289591,39.4906616 35.6265259,39.8452759 C37.9240926,40.1998901 39.8615519,40.1571655 41.4389038,39.7171021 C43.0162557,39.2770386 44.1592407,38.4395345 44.8678589,37.2045898 Z M42.9873657,36.1120605 C42.264506,37.3496501 40.8414205,37.9783122 38.7181091,37.9980469 C36.5947978,38.0177816 33.9114889,37.4379985 30.6681824,36.2586975 C27.4248759,35.0793966 23.7742106,33.3203125 19.7161865,30.9814453 C15.686849,28.6592611 12.3587036,26.3955688 9.73175049,24.1903687 C7.10479736,21.9851685 5.27048747,19.9588521 4.2288208,18.1114197 C3.18715413,16.2639872 3.02530924,14.7171021 3.74328613,13.4707642 C4.46634928,12.2201538 5.89070638,11.5827433 8.01635742,11.5585327 C10.1420085,11.5343221 12.816925,12.1045431 16.0411072,13.2691956 C19.2652893,14.4338481 22.8875732,16.1794027 26.907959,18.5058594 C30.9617106,20.8575439 34.311676,23.143514 36.9578552,25.3637695 C39.6040344,27.5840251 41.4512126,29.6188863 42.4993896,31.4683533 C43.5475667,33.3178202 43.7102254,34.8657227 42.9873657,36.1120605 Z" id="Shape"></path>
        </g>
    </g>
</svg>