<?xml version="1.0" encoding="UTF-8"?>
<svg viewBox="0 0 444 250" version="1.1" xmlns="http://www.w3.org/2000/svg" xmlns:xlink="http://www.w3.org/1999/xlink">
    <g id="assets/default_artwork_musicvideo" stroke="none" fill="none" xlink:href="#path-1" fill-rule="evenodd">
        <rect id="Fill" fill="#8E8E93" fill-rule="evenodd" opacity="0.18" x="0" y="0" width="444" height="250"></rect>
        <g id="Symbol" stroke-width="1" transform="translate(44.4, 25)" fill="#8E8E93" fill-opacity="0.34">
            <path d="M129.113672,132.167969 C125.142318,132.167969 122.025456,131.036784 119.763086,128.774414 C117.500716,126.512044 116.369531,123.411458 116.369531,119.472656 L116.369531,63.3691406 C116.369531,59.3977865 117.500716,56.2809245 119.763086,54.0185547 C122.025456,51.7561849 125.142318,50.625 129.113672,50.625 L226.086328,50.625 C230.057682,50.625 233.174544,51.7561849 235.436914,54.0185547 C237.699284,56.2809245 238.830469,59.3977865 238.830469,63.3691406 L238.830469,119.472656 C238.830469,123.411458 237.699284,126.512044 235.436914,128.774414 C233.174544,131.036784 230.057682,132.167969 226.086328,132.167969 L129.113672,132.167969 Z M129.357812,124.013672 L225.842187,124.013672 C227.372135,124.013672 228.552148,123.598633 229.382227,122.768555 C230.212305,121.938477 230.627344,120.77474 230.627344,119.277344 L230.627344,63.5644531 C230.627344,62.0670573 230.212305,60.9033203 229.382227,60.0732422 C228.552148,59.2431641 227.372135,58.828125 225.842187,58.828125 L129.357812,58.828125 C127.827865,58.828125 126.647852,59.2431641 125.817773,60.0732422 C124.987695,60.9033203 124.572656,62.0670573 124.572656,63.5644531 L124.572656,119.277344 C124.572656,120.77474 124.987695,121.938477 125.817773,122.768555 C126.647852,123.598633 127.827865,124.013672 129.357812,124.013672 Z M152.941797,148.867188 C151.835026,148.867188 150.882878,148.460286 150.085352,147.646484 C149.287826,146.832682 148.889062,145.888672 148.889062,144.814453 C148.889062,143.67513 149.287826,142.714844 150.085352,141.933594 C150.882878,141.152344 151.835026,140.761719 152.941797,140.761719 L202.258203,140.761719 C203.364974,140.761719 204.317122,141.152344 205.114648,141.933594 C205.912174,142.714844 206.310937,143.67513 206.310937,144.814453 C206.310937,145.888672 205.912174,146.832682 205.114648,147.646484 C204.317122,148.460286 203.364974,148.867188 202.258203,148.867188 L152.941797,148.867188 Z M192.297266,82.6074219 L180.822656,85.390625 C180.269271,85.5208333 179.886784,85.7486979 179.675195,86.0742188 C179.463607,86.3997396 179.357812,86.9856771 179.357812,87.8320313 L179.357812,104.53125 C179.357812,108.079427 178.275456,110.976563 176.110742,113.222656 C173.946029,115.46875 171.122135,116.591797 167.639062,116.591797 C165.165104,116.591797 163.203841,115.924479 161.755273,114.589844 C160.306706,113.255208 159.582422,111.546224 159.582422,109.462891 C159.582422,107.054036 160.379948,105.157878 161.975,103.774414 C163.570052,102.390951 165.490625,101.40625 167.736719,100.820313 L172.228906,99.6484375 C173.465885,99.2903646 174.214583,98.9404297 174.475,98.5986328 C174.735417,98.2568359 174.865625,97.5325521 174.865625,96.4257813 L174.865625,74.5507813 C174.865625,73.0859375 175.060937,72.125651 175.451562,71.6699219 C175.842187,71.2141927 176.639714,70.8398438 177.844141,70.546875 L192.101953,67.03125 C193.404036,66.7057292 194.266667,66.7301432 194.689844,67.1044922 C195.113021,67.4788411 195.324609,68.1542969 195.324609,69.1308594 L195.324609,78.6523438 C195.324609,80.1171875 195.113021,81.0693359 194.689844,81.5087891 C194.266667,81.9482422 193.469141,82.3144531 192.297266,82.6074219 Z" id="Shape" fill-rule="nonzero"></path>
        </g>
    </g>
</svg>