<?xml version="1.0" encoding="UTF-8"?>
<svg viewBox="0 0 250 375" version="1.1" xmlns="http://www.w3.org/2000/svg" xmlns:xlink="http://www.w3.org/1999/xlink">
    <g id="assets/default_artwork_artist_2x3" stroke="none" fill="none" fill-rule="evenodd">
        <rect id="Fill" fill-opacity="0.18" fill="#8E8E93" x="2.27373675e-13" y="0" width="250" height="375"></rect>
        <g id="Symbol" stroke-width="1" transform="translate(25, 88)" fill="#8E8E93" fill-opacity="0.34">
            <path d="M101.388931,152.929596 C99.9980418,152.929596 98.8179398,152.45389 97.8486252,151.50248 C96.8793106,150.551069 96.3946533,149.379918 96.3946533,147.989029 L96.3946533,117.587799 L68.7310028,143.177704 C67.6450348,144.192057 66.3919195,144.732384 64.9716568,144.798683 C63.5513941,144.864983 62.2160339,144.267029 60.9655762,143.004822 L52.0722198,149.974655 C51.5485382,150.35231 50.9960429,150.521695 50.4147339,150.482811 C49.8334249,150.443926 49.3007914,150.19957 48.8168335,149.749741 L47.2592163,148.14093 C46.7422485,147.658091 46.4811071,147.117485 46.4756695,146.519112 C46.4704768,145.920738 46.6381836,145.396077 46.9789124,144.945129 L53.8975525,136.041702 C52.6364644,134.722427 52.0387904,133.361191 52.1045303,131.957993 C52.1702703,130.554794 52.710317,129.292308 53.7246704,128.170532 L103.659897,74.4394531 C103.243078,71.3135885 103.638077,68.208285 104.844894,65.1235428 C106.051712,62.0388006 108.066152,59.0873566 110.888214,56.2692108 L140.634842,86.0653534 C137.816137,88.8885345 134.838676,90.9294103 131.702461,92.1879807 C128.566246,93.446551 125.471013,93.8677063 122.416763,93.4514465 L106.396637,108.245453 L106.38237,147.989029 C106.381251,149.379918 105.896034,150.551069 104.92672,151.50248 C103.957405,152.45389 102.778142,152.929596 101.388931,152.929596 Z M59.4658661,132.618469 L64.3913269,137.542252 L114.137726,90.3664246 C113.429413,89.9367371 112.72138,89.4294205 112.013626,88.8444748 C111.305873,88.2595291 110.633087,87.6308034 109.99527,86.9582977 C109.322764,86.2516632 108.711243,85.5357971 108.160706,84.8106995 C107.610168,84.0856018 107.121455,83.3344879 106.694565,82.5573578 L59.4658661,132.618469 Z M116.342392,50.7655182 C119.494553,47.6083221 122.853724,45.4706548 126.419907,44.3525162 C129.986089,43.2343775 133.529193,43.1507339 137.049217,44.1015854 C140.569242,45.0524368 143.845469,47.0270131 146.877899,50.0253143 C149.910889,53.0594228 151.902809,56.3451614 152.853661,59.8825302 C153.804512,63.419899 153.712336,66.9715347 152.577133,70.5374374 C151.44193,74.1033401 149.29629,77.4453074 146.140213,80.5633392 L116.342392,50.7655182 Z" id="Shape" fill-rule="nonzero"></path>
        </g>
    </g>
</svg>