<?xml version="1.0" encoding="UTF-8"?>
<svg viewBox="0 0 100 100" version="1.1" xmlns="http://www.w3.org/2000/svg" xmlns:xlink="http://www.w3.org/1999/xlink">
    <g id="assets/default_artwork_artist" stroke="none" stroke-width="1" fill="none" fill-rule="evenodd">
        <rect id="Fill" fill="#8E8E93" opacity="0.18" x="0" y="0" width="100" height="100"></rect>
        <g id="Symbol" transform="translate(25.585938, 25.965990)" fill="#8E8E93" fill-rule="nonzero" opacity="0.34">
            <path d="M31.25,20.7449474 C30.7942708,20.4357026 30.4158529,20.1020437 30.1147461,19.7439708 C29.8136393,19.3858979 29.5979818,19.1336192 29.4677734,18.9871349 C29.3375651,18.8569265 29.0934245,18.641269 28.7353516,18.3401622 C28.3772786,18.0390554 28.0354818,17.6606375 27.7099609,17.2049083 L5.78613281,40.4715099 L8.03222656,42.7176036 L31.25,20.7449474 Z M31.6894531,3.31330673 C33.1217448,1.88101506 34.6435547,0.91259058 36.2548828,0.408033288 C37.8662109,-0.0965240036 39.465332,-0.133145097 41.0522461,0.298170007 C42.6391602,0.729485111 44.1162109,1.62059839 45.4833984,2.97150985 C46.8505859,4.33869735 47.7498372,5.81981714 48.1811523,7.41486923 C48.6124674,9.00992131 48.5717773,10.6131114 48.059082,12.2244395 C47.5463867,13.8357677 46.5738932,15.3494395 45.1416016,16.7654552 L31.6894531,3.31330673 Z M35.6689453,21.379713 L9.98535156,45.1834239 C9.49707031,45.6391531 8.93147786,45.8832937 8.28857422,45.9158458 C7.64567057,45.9483979 7.04752604,45.6798432 6.49414062,45.1101817 L2.46582031,48.2595958 C2.23795573,48.4223562 1.99788411,48.4955984 1.74560547,48.4793224 C1.49332682,48.4630463 1.26139323,48.357252 1.04980469,48.1619395 L0.341796875,47.4295177 C0.113932292,47.2179291 0,46.9819265 0,46.7215099 C0,46.4610932 0.0732421875,46.2332286 0.219726562,46.0379161 L3.34472656,42.0095958 C2.7750651,41.4236583 2.50651042,40.8133067 2.5390625,40.1785411 C2.57161458,39.5437755 2.81575521,38.974114 3.27148438,38.4695567 L27.0996094,12.810377 L35.6689453,21.379713 Z M29.2480469,5.77912704 L42.6757812,19.2312755 C41.2272135,20.6961192 39.6891276,21.6889578 38.0615234,22.2097911 C36.4339193,22.7306244 34.8225911,22.7794526 33.2275391,22.3562755 C31.632487,21.9330984 30.1676432,21.0297781 28.8330078,19.6463145 C27.4983724,18.246575 26.6153971,16.7532481 26.184082,15.1663341 C25.7527669,13.57942 25.789388,11.9802989 26.2939453,10.3689708 C26.7985026,8.75764266 27.7832031,7.22769475 29.2480469,5.77912704 Z M26.8554688,28.1668224 L27.0996094,32.9763927 L27.0996094,47.4051036 C27.0996094,48.0398692 26.8839518,48.5688406 26.4526367,48.9920177 C26.0213216,49.4151947 25.4964193,49.6267833 24.8779297,49.6267833 C24.2594401,49.6267833 23.7345378,49.4151947 23.3032227,48.9920177 C22.8719076,48.5688406 22.65625,48.0398692 22.65625,47.4051036 L22.65625,32.9763927 L22.8027344,31.1941661 L26.8554688,28.1668224 Z" id="Shape"></path>
        </g>
    </g>
</svg>