<?xml version="1.0" encoding="UTF-8"?>
<svg viewBox="0 0 100 150" version="1.1" xmlns="http://www.w3.org/2000/svg" xmlns:xlink="http://www.w3.org/1999/xlink">
    <g id="assets/default_artwork_video_2x3" stroke="none" stroke-width="1" fill="none" fill-rule="evenodd">
        <g id="Symbol" fill="#8E8E93">
            <rect id="Rectangle" fill="#8E8E93" fill-rule="evenodd" opacity="0.18" x="0" y="0" width="100" height="150"></rect>
            <path d="M34.84375,60.4444444 L65.15625,60.4444444 C66.1670252,60.3368367 67.1708198,60.7017014 67.8741679,61.432368 C68.577516,62.1630345 68.9009825,63.1769825 68.75,64.1777778 L68.75,81.7555556 C68.9143402,82.7589667 68.5953962,83.7809282 67.8888219,84.5149463 C67.1822475,85.2489645 66.1702186,85.6096716 65.15625,85.4888889 L34.84375,85.4888889 C33.8329748,85.5964966 32.8291802,85.2316319 32.1258321,84.5009653 C31.422484,83.7702988 31.0990175,82.7563508 31.25,81.7555556 L31.25,64.1777778 C31.1301297,63.3049265 31.3643565,62.4204855 31.9009119,61.7199339 C32.4374672,61.0193822 33.2321699,60.5604047 34.109375,60.4444444 C34.3536056,60.4211104 34.5995194,60.4211104 34.84375,60.4444444 L34.84375,60.4444444 Z M35.78125,63.5555556 C35.4516649,63.5114232 35.1180013,63.5998588 34.8540852,63.8012952 C34.5901691,64.0027315 34.4177582,64.3005621 34.375,64.6288889 C34.3594017,64.7372241 34.3594017,64.8472203 34.375,64.9555556 L34.375,80.9777778 C34.3306706,81.305898 34.419501,81.6380787 34.6218367,81.9008219 C34.8241723,82.163565 35.1233324,82.3352096 35.453125,82.3777778 L64.375,82.3777778 C64.7045851,82.4219102 65.0382487,82.3334745 65.3021648,82.1320382 C65.5660809,81.9306018 65.7384918,81.6327713 65.78125,81.3044444 C65.7968483,81.1961092 65.7968483,81.086113 65.78125,80.9777778 L65.78125,64.9555556 C65.8255794,64.6274353 65.736749,64.2952546 65.5344133,64.0325115 C65.3320777,63.7697684 65.0329176,63.5981237 64.703125,63.5555556 L35.78125,63.5555556 Z M60.93752,88.4444444 C60.9415363,89.2462992 60.3326583,89.9198236 59.53125,90 L42.03125,90 C41.1683051,90 40.46875,89.3035541 40.46875,88.4444444 C40.46875,87.5853348 41.1683051,86.8888889 42.03125,86.8888889 L59.53125,86.8888889 C60.3326583,86.9690653 60.9415363,87.6425897 60.93752,88.4444444 Z" id="tv" fill-opacity="0.34" fill-rule="nonzero"></path>
        </g>
    </g>
</svg>