<?xml version="1.0" encoding="UTF-8"?>
<svg viewBox="0 0 250 375" version="1.1" xmlns="http://www.w3.org/2000/svg" xmlns:xlink="http://www.w3.org/1999/xlink">
    <g id="assets/placeholder_2x3_folder" stroke="none" fill="none" fill-rule="evenodd">
        <rect id="Fill" fill-opacity="0.18" fill="#8E8E93" x="2.27373675e-13" y="0" width="250" height="375"></rect>
        <g id="Symbol" stroke-width="1" transform="translate(25, 88)" fill="#8E8E93" fill-opacity="0.34">
            <path d="M59.7242489,143.542633 C54.91417,143.542633 51.2863929,142.330704 48.8409176,139.906845 C46.3954424,137.482986 45.1727048,133.883311 45.1727048,129.107819 L45.1727048,69.0011597 C45.1727048,64.4850667 46.2707018,61.0972341 48.4666958,58.8376617 C50.6626899,56.5780894 53.8264727,55.4483032 57.9580441,55.4483032 L71.8267575,55.4483032 C73.4686032,55.4483032 74.8684699,55.5554962 76.0263577,55.7698822 C77.1842455,55.9842682 78.2415524,56.3509878 79.1982785,56.8700409 C80.1550046,57.389094 81.1714942,58.1262207 82.2477475,59.0814209 L85.0477353,61.4610291 C86.3442237,62.6013692 87.5833645,63.3855438 88.7651578,63.8135529 C89.946951,64.2415619 91.472957,64.4555664 93.3431759,64.4555664 L140.276159,64.4555664 C145.064876,64.4555664 148.687058,65.6777954 151.142706,68.1222534 C153.598354,70.5667114 154.826178,74.1512553 154.826178,78.875885 L154.826178,129.107819 C154.826178,133.863983 153.639552,137.458827 151.266302,139.892349 C148.893052,142.325872 145.542476,143.542633 141.214575,143.542633 L59.7242489,143.542633 Z M59.9203244,137.124786 L140.047278,137.124786 C142.699255,137.124786 144.758174,136.421102 146.224035,135.013733 C147.689896,133.606364 148.422827,131.522522 148.422827,128.762207 L148.422827,79.2871094 C148.422827,76.5145874 147.689896,74.4170125 146.224035,72.9943848 C144.758174,71.571757 142.699255,70.8604431 140.047278,70.8604431 L91.7448178,70.8604431 C90.1024635,70.8604431 88.6846676,70.7508341 87.4914303,70.5316162 C86.298193,70.3123983 85.2106228,69.9432627 84.2287198,69.4242096 C83.2468167,68.9051565 82.2426612,68.1980387 81.2162533,67.3028564 L78.4307614,64.8904419 C77.104264,63.7099202 75.8630887,62.8980255 74.7072354,62.4547577 C73.5513821,62.0114899 72.0686093,61.789856 70.2589169,61.789856 L59.1833249,61.789856 C56.691056,61.789856 54.8025265,62.4312337 53.5177365,63.7139893 C52.2329465,64.9967448 51.5905514,66.9145203 51.5905514,69.4673157 L51.5905514,128.729401 C51.5905514,131.511587 52.3007209,133.606364 53.7210599,135.013733 C55.1413988,136.421102 57.2078203,137.124786 59.9203244,137.124786 Z M56.6679135,84.7245789 L56.6679135,82.5311279 C56.6679135,80.9142049 57.1153775,79.6674347 58.0103055,78.7908173 C58.9052334,77.9141998 60.2928932,77.4758911 62.1732846,77.4758911 L137.7638,77.4758911 C139.645208,77.4758911 141.03325,77.9141998 141.927923,78.7908173 C142.822597,79.6674347 143.269934,80.9142049 143.269934,82.5311279 L143.269934,84.7245789 L56.6679135,84.7245789 Z" id="Shape" fill-rule="nonzero"></path>
        </g>
    </g>
</svg>