<?xml version="1.0" encoding="UTF-8"?>
<svg viewBox="0 0 250 333" version="1.1" xmlns="http://www.w3.org/2000/svg" xmlns:xlink="http://www.w3.org/1999/xlink">
    <g id="assets/default_artwork_playlist_3x4" stroke="none" fill="none" xlink:href="#path-1" fill-rule="evenodd">
        <rect id="Fill" fill="#8E8E93" fill-rule="evenodd"  opacity="0.18" x="1.13686838e-13" y="0" width="250" height="333"></rect>
        <g id="Symbol" stroke-width="1" transform="translate(25, 35)" fill="#8E8E93" fill-opacity="0.34">
            <path d="M148.849984,74.453125 C148.849984,75.234375 148.630257,75.8854167 148.190804,76.40625 C147.751351,76.9270833 147.157275,77.2851563 146.408577,77.4804688 L125.119515,82.1191406 C123.849984,82.4121094 123.019905,82.8108724 122.62928,83.3154297 C122.238655,83.819987 122.043343,84.7395833 122.043343,86.0742188 L122.043343,130.068359 C122.043343,133.51888 121.481819,136.456706 120.358773,138.881836 C119.235726,141.306966 117.77902,143.268229 115.988655,144.765625 C114.198291,146.263021 112.302132,147.353516 110.300179,148.037109 C108.298226,148.720703 106.402067,149.0625 104.611702,149.0625 C100.640348,149.0625 97.4095538,147.923177 94.9193195,145.644531 C92.4290851,143.365885 91.1839679,140.419922 91.1839679,136.806641 C91.1839679,133.193359 92.3314288,130.214844 94.6263507,127.871094 C96.9212726,125.527344 100.42876,123.850911 105.148812,122.841797 L112.912484,121.230469 C115.321338,120.742188 116.460661,119.163411 116.330452,116.494141 L116.13514,62.9785156 C116.13514,60.5045573 117.583707,58.9420573 120.480843,58.2910156 L144.553109,53.0664063 C145.757536,52.8059896 146.774788,53.0175781 147.604866,53.7011719 C148.434944,54.3847656 148.849984,55.3450521 148.849984,56.5820313 L148.849984,74.453125 Z M53.732796,76.2109375 C52.9840981,76.2109375 52.3493325,75.9505208 51.8284991,75.4296875 C51.3076658,74.9088542 51.0472491,74.2903646 51.0472491,73.5742188 C51.0472491,72.8580729 51.3076658,72.2314453 51.8284991,71.6943359 C52.3493325,71.1572266 52.9840981,70.8886719 53.732796,70.8886719 L98.264046,70.8886719 C99.0127439,70.8886719 99.6475096,71.1572266 100.168343,71.6943359 C100.689176,72.2314453 100.949593,72.8580729 100.949593,73.5742188 C100.949593,74.2903646 100.689176,74.9088542 100.168343,75.4296875 C99.6475096,75.9505208 99.0127439,76.2109375 98.264046,76.2109375 L53.732796,76.2109375 Z M53.732796,93.2519531 C52.9840981,93.2519531 52.3493325,92.9833984 51.8284991,92.4462891 C51.3076658,91.9091797 51.0472491,91.266276 51.0472491,90.5175781 C51.0472491,89.8014323 51.3076658,89.1910807 51.8284991,88.6865234 C52.3493325,88.1819661 52.9840981,87.9296875 53.732796,87.9296875 L98.264046,87.9296875 C99.0127439,87.9296875 99.6475096,88.1819661 100.168343,88.6865234 C100.689176,89.1910807 100.949593,89.8014323 100.949593,90.5175781 C100.949593,91.266276 100.689176,91.9091797 100.168343,92.4462891 C99.6475096,92.9833984 99.0127439,93.2519531 98.264046,93.2519531 L53.732796,93.2519531 Z M53.732796,110.244141 C52.9840981,110.244141 52.3493325,109.983724 51.8284991,109.462891 C51.3076658,108.942057 51.0472491,108.307292 51.0472491,107.558594 C51.0472491,106.809896 51.3076658,106.17513 51.8284991,105.654297 C52.3493325,105.133464 52.9840981,104.873047 53.732796,104.873047 L98.264046,104.873047 C99.0127439,104.873047 99.6475096,105.133464 100.168343,105.654297 C100.689176,106.17513 100.949593,106.809896 100.949593,107.558594 C100.949593,108.307292 100.689176,108.942057 100.168343,109.462891 C99.6475096,109.983724 99.0127439,110.244141 98.264046,110.244141 L53.732796,110.244141 Z" id="Shape" fill-rule="nonzero"></path>
        </g>
    </g>
</svg>