<?xml version="1.0" encoding="UTF-8"?>
<svg viewBox="0 0 100 100" version="1.1" xmlns="http://www.w3.org/2000/svg" xmlns:xlink="http://www.w3.org/1999/xlink">
    <g id="assets/default_artwork_playlist_smart" stroke="none" stroke-width="1" fill="none" fill-rule="evenodd">
        <rect id="Fill" fill="#8E8E93" opacity="0.18" x="0" y="0" width="100" height="100"></rect>
        <g id="Symbol" transform="translate(29.254397, 29.357971)" fill="#8E8E93" fill-opacity="0.34" fill-rule="nonzero">
            <path d="M18.5873413,41.0934448 L22.5326538,41.0934448 C23.2223511,41.0934448 23.8055929,40.9033712 24.2823792,40.5232239 C24.7591654,40.1430766 25.0759888,39.6110026 25.2328491,38.927002 L26.1035156,35.1699829 L27.0361328,34.8321533 L30.3182983,36.8652344 C30.8981323,37.2442627 31.4941406,37.3953756 32.1063232,37.318573 C32.7185059,37.2417704 33.2689412,36.9590251 33.7576294,36.4703369 L36.5042114,33.742981 C36.993103,33.2542928 37.2758993,32.7028402 37.3526001,32.088623 C37.4293009,31.4744059 37.2802734,30.8753459 36.9055176,30.2914429 L34.8394775,27.0288086 L35.1968384,26.1169434 L38.9538574,25.2328491 C39.6289062,25.0757853 40.1586914,24.7566732 40.5432129,24.2755127 C40.9277344,23.7943522 41.1199951,23.2133993 41.1199951,22.5326538 L41.1199951,18.6407471 C41.1199951,17.9602051 40.9277344,17.379303 40.5432129,16.8980408 C40.1586914,16.4167786 39.6289062,16.0976156 38.9538574,15.9405518 L35.2172852,15.043335 L34.8526001,14.1046143 L36.9186401,10.84198 C37.2935994,10.258077 37.4426778,9.66125488 37.3658752,9.05151367 C37.2890727,8.44177246 37.0063273,7.89011637 36.5176392,7.39654541 L33.7710571,4.6496582 C33.2911174,4.16992188 32.7450562,3.89266968 32.1328735,3.81790161 C31.5206909,3.74313354 30.9246826,3.88875326 30.3448486,4.25476074 L27.0629883,6.29394531 L26.1035156,5.92956543 L25.2328491,2.16644287 C25.0759888,1.49119059 24.7591654,0.961303711 24.2823792,0.576782227 C23.8055929,0.192260742 23.2223511,0 22.5326538,0 L18.5873413,0 C17.9019165,0 17.3197937,0.192260742 16.8409729,0.576782227 C16.3621521,0.961303711 16.0442098,1.49119059 15.887146,2.16644287 L15.0094604,5.92956543 L14.0377808,6.29394531 L10.769043,4.25476074 C10.1802572,3.88875326 9.5820109,3.74313354 8.9743042,3.81790161 C8.36659749,3.89266968 7.81840007,4.16992188 7.32971191,4.6496582 L4.59625244,7.39654541 C4.09454346,7.89011637 3.80854289,8.44177246 3.73825073,9.05151367 C3.66795858,9.66125488 3.82029215,10.258077 4.19525146,10.84198 L6.24176025,14.1046143 L5.89050293,15.043335 L2.16644287,15.9405518 C1.48244222,16.0976156 0.950368245,16.4167786 0.570220947,16.8980408 C0.190073649,17.379303 0,17.9602051 0,18.6407471 L0,22.5326538 C0,23.2133993 0.192260742,23.7943522 0.576782227,24.2755127 C0.961303711,24.7566732 1.49119059,25.0757853 2.16644287,25.2328491 L5.91705322,26.1169434 L6.25518799,27.0288086 L4.2086792,30.2914429 C3.83371989,30.8753459 3.68138631,31.4744059 3.75167847,32.088623 C3.82197062,32.7028402 4.10797119,33.2542928 4.60968018,33.742981 L7.34283447,36.4703369 C7.83172607,36.9590251 8.38226318,37.2417704 8.9944458,37.318573 C9.60662842,37.3953756 10.2071126,37.2442627 10.7958984,36.8652344 L14.0643311,34.8321533 L15.0094604,35.1699829 L15.887146,38.927002 C16.0442098,39.6110026 16.3621521,40.1430766 16.8409729,40.5232239 C17.3197937,40.9033712 17.9019165,41.0934448 18.5873413,41.0934448 Z M18.8446045,38.7539673 C18.3878581,38.7539673 18.1149292,38.5365804 18.0258179,38.1018066 L16.9094849,33.3441162 C16.3719686,33.2090251 15.8545431,33.039856 15.3572083,32.8366089 C14.8598735,32.6333618 14.4111125,32.4220785 14.0109253,32.2027588 L9.8638916,34.7769165 C9.50642904,35.0241089 9.15476481,34.979248 8.80889893,34.642334 L6.41815186,32.2576904 C6.10727946,31.9514974 6.07096354,31.5998332 6.3092041,31.2026978 L8.88336182,27.0761108 C8.69069417,26.6799927 8.48948161,26.2355042 8.27972412,25.7426453 C8.06996663,25.2497864 7.89316813,24.736735 7.74932861,24.2034912 L2.9977417,23.0941772 C2.55889893,23.0052694 2.33947754,22.7323405 2.33947754,22.2753906 L2.33947754,18.8845825 C2.33947754,18.4367879 2.55889893,18.1639608 2.9977417,18.0661011 L7.73590088,16.9433594 C7.88380941,16.3832601 8.06833903,15.8523051 8.28948975,15.3504944 C8.51064046,14.8486837 8.699646,14.4196574 8.85650635,14.0634155 L6.29577637,9.9307251 C6.05285645,9.53358968 6.08469645,9.17510986 6.39129639,8.85528564 L8.79547119,6.49108887 C9.13238525,6.17207845 9.48852539,6.12925212 9.8638916,6.36260986 L13.9840698,8.89678955 C14.3844604,8.69110107 14.8422241,8.4854126 15.3573608,8.27972412 C15.8724976,8.07403564 16.3922119,7.89713542 16.9165039,7.74902344 L18.0258179,2.9977417 C18.1149292,2.55869548 18.3878581,2.33917236 18.8446045,2.33917236 L22.2756958,2.33917236 C22.7365112,2.33917236 23.0048625,2.55869548 23.0807495,2.9977417 L24.2169189,7.77587891 C24.7674561,7.91992188 25.2848307,8.09356689 25.769043,8.29681396 C26.2532552,8.50006104 26.6958618,8.70452881 27.0968628,8.91021729 L31.2365723,6.36260986 C31.6208903,6.12925212 31.9815063,6.17207845 32.3184204,6.49108887 L34.703064,8.85528564 C35.0228882,9.17510986 35.0567627,9.53358968 34.8046875,9.9307251 L32.2439575,14.0634155 C32.4181112,14.4196574 32.6134745,14.8476664 32.8300476,15.3474426 C33.0466207,15.8472188 33.2269287,16.3791911 33.3709717,16.9433594 L38.1286621,18.0661011 C38.5634359,18.1639608 38.7808228,18.4367879 38.7808228,18.8845825 L38.7808228,22.2753906 C38.7808228,22.7323405 38.5634359,23.0052694 38.1286621,23.0941772 L33.3575439,24.2034912 C33.213501,24.740804 33.039856,25.2548726 32.8366089,25.745697 C32.6333618,26.2365214 32.4268595,26.6799927 32.2171021,27.0761108 L34.7912598,31.2026978 C35.0343831,31.5998332 34.9980672,31.9514974 34.682312,32.2576904 L32.3049927,34.642334 C31.9591268,34.979248 31.6029867,35.0241089 31.2365723,34.7769165 L27.0834351,32.2027588 C26.6913859,32.4220785 26.2510173,32.6333618 25.7623291,32.8366089 C25.273641,33.039856 24.7585042,33.2090251 24.2169189,33.3441162 L23.0807495,38.1018066 C23.0048625,38.5365804 22.7365112,38.7539673 22.2756958,38.7539673 L18.8446045,38.7539673 Z M20.5661011,28.0136108 C21.9332886,28.0136108 23.1811015,27.6773071 24.3095398,27.0046997 C25.4379781,26.3320923 26.3395182,25.4283651 27.0141602,24.2935181 C27.6888021,23.1586711 28.026123,21.9076538 28.026123,20.5404663 C28.026123,19.1862996 27.6888021,17.945048 27.0141602,16.8167114 C26.3395182,15.6883748 25.4379781,14.7879028 24.3095398,14.1152954 C23.1811015,13.442688 21.9332886,13.1063843 20.5661011,13.1063843 C19.203186,13.1063843 17.9564921,13.442688 16.8260193,14.1152954 C15.6955465,14.7879028 14.7907511,15.6883748 14.1116333,16.8167114 C13.4325155,17.945048 13.0929565,19.1862996 13.0929565,20.5404663 C13.0929565,21.9076538 13.4314982,23.1564331 14.1085815,24.2868042 C14.7856649,25.4171753 15.6893921,26.3209025 16.8197632,26.9979858 C17.9501343,27.6750692 19.1989136,28.0136108 20.5661011,28.0136108 Z M20.5661011,25.6878662 C19.6316528,25.6878662 18.774821,25.455424 17.9956055,24.9905396 C17.21639,24.5256551 16.5943909,23.9036051 16.1296082,23.1243896 C15.6648254,22.3451742 15.4324341,21.4838664 15.4324341,20.5404663 C15.4324341,19.6100871 15.6658427,18.7585449 16.1326599,17.9858398 C16.5994771,17.2131348 17.2225444,16.59434 18.0018616,16.1294556 C18.7811788,15.6645711 19.6359253,15.4321289 20.5661011,15.4321289 C21.4915975,15.4321289 22.3417664,15.6645711 23.1166077,16.1294556 C23.891449,16.59434 24.511261,17.2131348 24.9760437,17.9858398 C25.4408264,18.7585449 25.6732178,19.6100871 25.6732178,20.5404663 C25.6732178,21.4749146 25.4408264,22.3317464 24.9760437,23.1109619 C24.511261,23.8901774 23.891449,24.5144653 23.1166077,24.9838257 C22.3417664,25.453186 21.4915975,25.6878662 20.5661011,25.6878662 Z" id="Shape"></path>
        </g>
    </g>
</svg>