<?xml version="1.0" encoding="UTF-8"?>
<svg viewBox="0 0 250 375" version="1.1" xmlns="http://www.w3.org/2000/svg" xmlns:xlink="http://www.w3.org/1999/xlink">
    <g id="assets/default_artwork_album_2x3" stroke="none" fill="none" fill-rule="evenodd">
        <rect id="Fill" fill-opacity="0.18" fill="#8E8E93" x="2.27373675e-13" y="0" width="250" height="375"></rect>
        <g id="Symbol" stroke-width="1" transform="translate(25, 88)" fill="#8E8E93" fill-opacity="0.34">
            <path d="M65.4450446,151.751099 C61.4085863,151.751099 58.0966661,150.571721 55.5092841,148.212967 C52.9219021,145.854212 51.6282111,142.824198 51.6282111,139.122925 C51.6282111,135.371806 52.8060625,132.289658 55.1617652,129.87648 C57.5174679,127.463303 61.1097684,125.749613 65.9386665,124.735413 L73.5817939,123.13858 C75.6152819,122.732697 76.6320258,121.3355 76.6320258,118.946991 L76.3375312,63.7727356 C76.3375312,60.9691874 78.0002306,59.2324829 81.3256294,58.5626221 L127.651313,48.9976501 C130.288032,48.4518941 132.181647,48.5706584 133.33216,49.3539429 C134.482673,50.1372274 135.057929,51.6903178 135.057929,54.0132141 L135.057929,121.932373 C135.057929,125.461731 134.482418,128.436559 133.331397,130.856857 C132.180376,133.277156 130.707394,135.231425 128.912452,136.719666 C127.11751,138.207906 125.203676,139.287593 123.170951,139.958725 C121.138226,140.629857 119.228207,140.965424 117.440894,140.965424 C114.747718,140.965424 112.34751,140.422084 110.240272,139.335403 C108.133033,138.248723 106.473767,136.749674 105.262473,134.838257 C104.05118,132.926839 103.445533,130.754242 103.445533,128.320465 C103.445533,121.03948 108.308255,116.341807 118.033698,114.227448 L125.335029,112.630615 C127.682339,112.145386 128.855994,110.63858 128.855994,108.110199 L128.530219,77.5018311 C128.530219,76.3925171 128.272219,75.6667074 127.756217,75.3244019 C127.240216,74.9820964 126.354316,74.9449666 125.098518,75.2130127 L85.8803779,83.2795715 C84.765469,83.504893 84.0415667,83.8207499 83.7086707,84.2271423 C83.3757748,84.6335347 83.2093269,85.4547119 83.2093269,86.6906738 L83.2093269,132.390747 C83.2093269,135.920614 82.6333076,138.91744 81.481269,141.381226 C80.3292304,143.845011 78.8343777,145.837428 76.9967109,147.358475 C75.1590441,148.879522 73.2154558,149.991887 71.1659461,150.695572 C69.1164364,151.399256 67.2094693,151.751099 65.4450446,151.751099 Z" id="Path" fill-rule="nonzero"></path>
        </g>
    </g>
</svg>