<?xml version="1.0" encoding="UTF-8"?>
<svg viewBox="0 0 250 375" version="1.1" xmlns="http://www.w3.org/2000/svg" xmlns:xlink="http://www.w3.org/1999/xlink">
    <g id="assets/default_artwork_musicvideo_2x3" stroke="none" fill="none" fill-rule="evenodd">
        <rect id="Fill" fill-opacity="0.18" fill="#8E8E93" x="2.27373675e-13" y="0" width="250" height="375"></rect>
        <g id="Symbol" stroke-width="1" transform="translate(25, 88)" fill="#8E8E93" fill-opacity="0.34">
            <path d="M51.5136719,132.167969 C47.5423177,132.167969 44.4254557,131.036784 42.1630859,128.774414 C39.9007161,126.512044 38.7695312,123.411458 38.7695312,119.472656 L38.7695312,63.3691406 C38.7695312,59.3977865 39.9007161,56.2809245 42.1630859,54.0185547 C44.4254557,51.7561849 47.5423177,50.625 51.5136719,50.625 L148.486328,50.625 C152.457682,50.625 155.574544,51.7561849 157.836914,54.0185547 C160.099284,56.2809245 161.230469,59.3977865 161.230469,63.3691406 L161.230469,119.472656 C161.230469,123.411458 160.099284,126.512044 157.836914,128.774414 C155.574544,131.036784 152.457682,132.167969 148.486328,132.167969 L51.5136719,132.167969 Z M51.7578125,124.013672 L148.242188,124.013672 C149.772135,124.013672 150.952148,123.598633 151.782227,122.768555 C152.612305,121.938477 153.027344,120.77474 153.027344,119.277344 L153.027344,63.5644531 C153.027344,62.0670573 152.612305,60.9033203 151.782227,60.0732422 C150.952148,59.2431641 149.772135,58.828125 148.242188,58.828125 L51.7578125,58.828125 C50.2278646,58.828125 49.0478516,59.2431641 48.2177734,60.0732422 C47.3876953,60.9033203 46.9726562,62.0670573 46.9726562,63.5644531 L46.9726562,119.277344 C46.9726562,120.77474 47.3876953,121.938477 48.2177734,122.768555 C49.0478516,123.598633 50.2278646,124.013672 51.7578125,124.013672 Z M75.3417969,148.867188 C74.235026,148.867188 73.2828776,148.460286 72.4853516,147.646484 C71.6878255,146.832682 71.2890625,145.888672 71.2890625,144.814453 C71.2890625,143.67513 71.6878255,142.714844 72.4853516,141.933594 C73.2828776,141.152344 74.235026,140.761719 75.3417969,140.761719 L124.658203,140.761719 C125.764974,140.761719 126.717122,141.152344 127.514648,141.933594 C128.312174,142.714844 128.710938,143.67513 128.710938,144.814453 C128.710938,145.888672 128.312174,146.832682 127.514648,147.646484 C126.717122,148.460286 125.764974,148.867188 124.658203,148.867188 L75.3417969,148.867188 Z M114.697266,82.6074219 L103.222656,85.390625 C102.669271,85.5208333 102.286784,85.7486979 102.075195,86.0742188 C101.863607,86.3997396 101.757812,86.9856771 101.757812,87.8320313 L101.757812,104.53125 C101.757812,108.079427 100.675456,110.976563 98.5107422,113.222656 C96.3460286,115.46875 93.5221354,116.591797 90.0390625,116.591797 C87.5651042,116.591797 85.6038411,115.924479 84.1552734,114.589844 C82.7067057,113.255208 81.9824219,111.546224 81.9824219,109.462891 C81.9824219,107.054036 82.7799479,105.157878 84.375,103.774414 C85.9700521,102.390951 87.890625,101.40625 90.1367188,100.820313 L94.6289062,99.6484375 C95.8658854,99.2903646 96.6145833,98.9404297 96.875,98.5986328 C97.1354167,98.2568359 97.265625,97.5325521 97.265625,96.4257813 L97.265625,74.5507813 C97.265625,73.0859375 97.4609375,72.125651 97.8515625,71.6699219 C98.2421875,71.2141927 99.0397135,70.8398438 100.244141,70.546875 L114.501953,67.03125 C115.804036,66.7057292 116.666667,66.7301432 117.089844,67.1044922 C117.513021,67.4788411 117.724609,68.1542969 117.724609,69.1308594 L117.724609,78.6523438 C117.724609,80.1171875 117.513021,81.0693359 117.089844,81.5087891 C116.666667,81.9482422 115.869141,82.3144531 114.697266,82.6074219 Z" id="Shape" fill-rule="nonzero"></path>
        </g>
    </g>
</svg>