<?xml version="1.0" encoding="UTF-8"?>
<svg viewBox="0 0 250 333" version="1.1" xmlns="http://www.w3.org/2000/svg" xmlns:xlink="http://www.w3.org/1999/xlink">
    <g id="assets/default_artwork_playlist_smart_3x4" stroke="none" fill="none" xlink:href="#path-1" fill-rule="evenodd">
        <rect id="Fill" fill="#8E8E93" fill-rule="evenodd" opacity="0.18" x="0" y="0" width="250" height="333"></rect>
        <g id="Symbol" stroke-width="1" transform="translate(25, 35)" fill="#8E8E93" fill-opacity="0.34">
            <path d="M95.0651616,151.310883 C93.317013,151.310883 91.8247034,150.82489 90.5882329,149.852905 C89.3517623,148.88092 88.5448267,147.525686 88.167426,145.787201 L85.9968632,136.498413 L83.7210149,135.684357 L75.6376714,140.709076 C74.1392583,141.650035 72.6076573,142.026927 71.0428685,141.839752 C69.4780797,141.652578 68.073381,140.936686 66.8287724,139.692078 L59.9905461,132.872162 C58.7128768,131.593984 57.9842697,130.17746 57.8047246,128.622589 C57.6251795,127.067719 58.0109725,125.547689 58.9621037,124.0625 L64.0211552,115.997467 L63.2070988,113.803253 L53.9358586,111.615906 C52.2202621,111.238505 50.871258,110.428263 49.8888463,109.185181 C48.9064346,107.942098 48.4152287,106.453094 48.4152287,104.71817 L48.4152287,94.9983215 C48.4152287,93.2644145 48.9008397,91.7817688 49.8720616,90.5503845 C50.8432835,89.3190002 52.1978825,88.502655 53.9358586,88.1013489 L63.142249,85.8811951 L63.9883488,83.6221313 L58.9292973,75.5563354 C57.9781661,74.0711466 57.5945348,72.5511169 57.7784032,70.9962463 C57.9622716,69.4413757 58.6889714,68.0296834 59.9585027,66.7611694 L66.796729,59.8947144 C68.0403203,58.6719767 69.4392969,57.9639689 70.9936589,57.7706909 C72.5480209,57.5774129 74.0744084,57.9464213 75.5728215,58.8777161 L83.656165,63.9169312 L85.9968632,63.0380249 L88.167426,53.7339783 C88.5448267,52.0183818 89.3517623,50.668869 90.5882329,49.6854401 C91.8247034,48.7020111 93.317013,48.2102966 95.0651616,48.2102966 L104.934546,48.2102966 C106.691342,48.2102966 108.180472,48.7017568 109.401938,49.6846771 C110.623404,50.6675975 111.433519,52.0173645 111.832282,53.7339783 L113.986823,63.0380249 L116.295478,63.9169312 L124.410865,58.8777161 C125.888933,57.9454041 127.410488,57.5761414 128.975531,57.769928 C130.540575,57.9637146 131.934465,58.6719767 133.157203,59.8947144 L140.025946,66.7611694 C141.294969,68.0296834 142.016328,69.4413757 142.190024,70.9962463 C142.36372,72.5511169 141.985175,74.0711466 141.054389,75.5563354 L135.950324,83.6221313 L136.828467,85.8811951 L146.062323,88.1013489 C147.779446,88.5016378 149.128831,89.3177287 150.11048,90.5496216 C151.092129,91.7815145 151.582953,93.2644145 151.582953,94.9983215 L151.582953,104.71817 C151.582953,106.453094 151.092002,107.942098 150.110099,109.185181 C149.128196,110.428263 147.778937,111.238505 146.062323,111.615906 L136.778113,113.803253 L135.91828,115.997467 L141.021582,124.0625 C141.951351,125.547689 142.324302,127.067719 142.140433,128.622589 C141.956565,130.17746 141.2408,131.593984 139.99314,132.872162 L133.124396,139.692078 C131.87877,140.936686 130.473817,141.652578 128.909537,141.839752 C127.345257,142.026927 125.824083,141.650035 124.346015,140.709076 L116.229865,135.684357 L113.986823,136.498413 L111.832282,145.787201 C111.433519,147.525686 110.623404,148.88092 109.401938,149.852905 C108.180472,150.82489 106.691342,151.310883 104.934546,151.310883 L95.0651616,151.310883 Z M95.7922429,145.151672 L104.205939,145.151672 C105.337633,145.151672 105.997067,144.61736 106.184241,143.548737 L109.023902,131.658325 C110.403805,131.320089 111.713391,130.892715 112.952659,130.376205 C114.191927,129.859695 115.317135,129.315592 116.328284,128.743896 L126.704261,135.170898 C127.657935,135.790405 128.531755,135.681051 129.325721,134.842834 L135.158393,128.994141 C135.933031,128.243408 136.02204,127.380269 135.425422,126.404724 L128.994605,116.090546 C129.538835,115.074819 130.069332,113.942362 130.586097,112.693176 C131.102861,111.44399 131.540025,110.140127 131.89759,108.781586 L143.822333,106.006012 C144.890448,105.787811 145.424506,105.11795 145.424506,103.996429 L145.424506,95.6880188 C145.424506,94.5878601 144.890448,93.9179993 143.822333,93.6784363 L131.931922,90.8708191 C131.57334,89.4471741 131.119646,88.0999502 130.570838,86.8291473 C130.02203,85.5583445 129.518236,84.4631449 129.059455,83.5435486 L135.457465,73.2141113 C136.075955,72.2390747 135.993049,71.3594055 135.208747,70.5751038 L129.358527,64.7767639 C128.54269,64.0041606 127.657935,63.8993835 126.704261,64.4624329 L116.358802,70.8253479 C115.332394,70.2892558 114.202353,69.7621918 112.96868,69.2441559 C111.735007,68.72612 110.420081,68.286794 109.023902,67.926178 L106.184241,55.9877014 C105.997067,54.9094137 105.337633,54.3702698 104.205939,54.3702698 L95.7922429,54.3702698 C94.6702133,54.3702698 94.0006067,54.9094137 93.7834233,55.9877014 L91.0086125,67.8613281 C89.6739771,68.2321167 88.3498957,68.6804708 87.0363683,69.2063904 C85.7228408,69.73231 84.5594853,70.261027 83.5463017,70.7925415 L73.2458562,64.4593811 C72.2921818,63.8953145 71.4175989,64.0000916 70.6221074,64.7737122 L64.7253484,70.5712891 C63.9720728,71.3560994 63.8939987,72.2360229 64.4911259,73.2110596 L70.8929509,83.5435486 C70.4743514,84.4631449 69.9858159,85.5607605 69.4273442,86.8363953 C68.8688725,88.11203 68.4044967,89.4578552 68.0342168,90.8738708 L56.1911076,93.6784363 C55.1128199,93.9179993 54.573676,94.5878601 54.573676,95.6880188 L54.573676,103.996429 C54.573676,105.11795 55.1128199,105.787811 56.1911076,106.006012 L68.0670232,108.777771 C68.4250961,110.1297 68.8701441,111.431783 69.4021672,112.684021 C69.9341903,113.936259 70.4529891,115.071767 70.9585637,116.090546 L64.5239323,126.407776 C63.9385035,127.383321 64.0272588,128.24646 64.7901982,128.997192 L70.6549138,134.845886 C71.4402328,135.684611 72.3038803,135.79422 73.2458562,135.174713 L83.6119145,128.743896 C84.6398483,129.315592 85.7865463,129.860458 87.0520085,130.378494 C88.3174707,130.89653 89.6309982,131.32314 90.9925908,131.658325 L93.7834233,143.548737 C94.0006067,144.61736 94.6702133,145.151672 95.7922429,145.151672 Z M99.9983281,118.362579 C96.5513676,118.362579 93.4189926,117.525253 90.6012028,115.850601 C87.7834131,114.175949 85.5424056,111.929347 83.8781804,109.110794 C82.2139551,106.292241 81.3818425,103.170675 81.3818425,99.7460938 C81.3818425,96.2986247 82.2139551,93.1713359 83.8781804,90.3642273 C85.5424056,87.5571187 87.7834131,85.3162384 90.6012028,83.6415863 C93.4189926,81.9669342 96.5513676,81.1296082 99.9983281,81.1296082 C103.423418,81.1296082 106.544857,81.9669342 109.362647,83.6415863 C112.180437,85.3162384 114.426912,87.5571187 116.102073,90.3642273 C117.777233,93.1713359 118.614814,96.2986247 118.614814,99.7460938 C118.614814,103.170675 117.777233,106.292241 116.102073,109.110794 C114.426912,111.929347 112.180437,114.175949 109.362647,115.850601 C106.544857,117.525253 103.423418,118.362579 99.9983281,118.362579 Z M99.9983281,112.314758 C102.308509,112.314758 104.416002,111.750183 106.320807,110.621033 C108.225613,109.491882 109.742845,107.97465 110.872504,106.069336 C112.002163,104.164022 112.566993,102.056274 112.566993,99.7460938 C112.566993,97.4130249 112.002163,95.2995555 110.872504,93.4056854 C109.742845,91.5118154 108.225613,90.0003052 106.320807,88.8711548 C104.416002,87.7420044 102.308509,87.1774292 99.9983281,87.1774292 C97.6657679,87.1774292 95.5524256,87.7420044 93.6583012,88.8711548 C91.7641769,90.0003052 90.2525395,91.5118154 89.1233891,93.4056854 C87.9942387,95.2995555 87.4296635,97.4130249 87.4296635,99.7460938 C87.4296635,102.056274 87.9942387,104.164022 89.1233891,106.069336 C90.2525395,107.97465 91.7641769,109.491882 93.6583012,110.621033 C95.5524256,111.750183 97.6657679,112.314758 99.9983281,112.314758 Z" id="Shape" fill-rule="nonzero"></path>
        </g>
    </g>
</svg>