<?xml version="1.0" encoding="UTF-8"?>
<svg viewBox="0 0 100 100" version="1.1" xmlns="http://www.w3.org/2000/svg" xmlns:xlink="http://www.w3.org/1999/xlink">
    <g id="assets/default_artwork_music" stroke="none" stroke-width="1" fill="none" fill-rule="evenodd">
        <rect id="Fill" fill="#8E8E93" opacity="0.18" x="0" y="0" width="100" height="100"></rect>
        <g id="Symbol" transform="translate(24.011230, 24.472633)" fill="#8E8E93" fill-rule="nonzero" opacity="0.34">
            <path d="M7.03125,52.2187733 C7.94270833,52.2187733 8.91927083,52.0397368 9.9609375,51.6816639 C11.0026042,51.323591 11.9873047,50.7579985 12.9150391,49.9848865 C13.8427734,49.2117746 14.6036784,48.198591 15.1977539,46.9453358 C15.7918294,45.6920805 16.0888672,44.1702706 16.0888672,42.3799061 L16.0888672,19.308617 C16.0888672,18.6901274 16.1661784,18.2872954 16.3208008,18.1001209 C16.4754232,17.9129464 16.8294271,17.762393 17.3828125,17.6484608 L37.4267578,13.5224842 C38.0289714,13.3922759 38.4521484,13.4085519 38.6962891,13.5713123 C38.9404297,13.7340727 39.0625,14.0840076 39.0625,14.621117 L39.2333984,30.0752186 C39.2333984,31.3121977 38.655599,32.0527576 37.5,32.2968983 L33.8134766,33.1025623 C28.8818359,34.1767811 26.4160156,36.5693592 26.4160156,40.2802967 C26.4160156,41.5172759 26.7211914,42.6240467 27.331543,43.6006092 C27.9418945,44.5771717 28.7882487,45.3421456 29.8706055,45.8955311 C30.9529622,46.4489165 32.1777344,46.7256092 33.5449219,46.7256092 C34.4401042,46.7256092 35.4044596,46.5547108 36.4379883,46.2129139 C37.4715169,45.871117 38.4480794,45.3218006 39.3676758,44.5649647 C40.2872721,43.8081287 41.0359701,42.8152902 41.6137695,41.586449 C42.191569,40.3576079 42.4804688,38.848005 42.4804688,37.0576404 L42.4804688,2.75588263 C42.4804688,1.56773158 42.183431,0.770205543 41.5893555,0.363304501 C40.9952799,-0.0435965402 40.0227865,-0.108700707 38.671875,0.167992001 L15.0634766,5.0508045 C13.3382161,5.39260138 12.4755859,6.28778367 12.4755859,7.73635138 L12.6464844,35.5927967 C12.6464844,36.7646717 12.1419271,37.4482654 11.1328125,37.6435779 L7.27539062,38.449242 C4.80143229,38.9700753 2.9703776,39.8489816 1.78222656,41.0859608 C0.594075521,42.3229399 0,43.8854399 0,45.7734608 C0,47.042992 0.301106771,48.1619699 0.903320312,49.1303943 C1.50553385,50.0988188 2.33561198,50.8556548 3.39355469,51.4009022 C4.4514974,51.9461496 5.6640625,52.2187733 7.03125,52.2187733 Z" id="Path"></path>
        </g>
    </g>
</svg>