<?xml version="1.0" encoding="UTF-8"?>
<svg viewBox="0 0 444 250" version="1.1" xmlns="http://www.w3.org/2000/svg" xmlns:xlink="http://www.w3.org/1999/xlink">
    <g id="assets/default_artwork_movie" stroke="none" fill="none" xlink:href="#path-1" fill-rule="evenodd">
        <rect id="Fill" fill="#8E8E93" fill-rule="evenodd" opacity="0.18" x="0" y="0" width="444" height="250"></rect>
        <g id="Symbol" stroke-width="1" transform="translate(44.4, 25)" fill="#8E8E93" fill-opacity="0.34">
            <path d="M130.063531,144.939575 C127.018894,144.939575 124.577107,144.035873 122.738168,142.22847 C120.89923,140.421066 119.979761,138.011068 119.979761,134.998474 L119.979761,64.6417236 C119.979761,61.6581217 120.89923,59.2628733 122.738168,57.4559784 C124.577107,55.6490835 127.018894,54.745636 130.063531,54.745636 L225.137994,54.745636 C228.214166,54.745636 230.663583,55.6490835 232.486246,57.4559784 C234.308908,59.2628733 235.220239,61.6581217 235.220239,64.6417236 L235.220239,134.998474 C235.220239,138.011068 234.308908,140.421066 232.486246,142.22847 C230.663583,144.035873 228.214166,144.939575 225.137994,144.939575 L130.063531,144.939575 Z M130.1177,136.849365 L136.135767,136.849365 C136.846826,136.849365 137.413436,136.623027 137.835596,136.170349 C138.257756,135.717672 138.468835,135.151316 138.468835,134.471283 L138.468835,128.903351 C138.468835,128.223317 138.257756,127.6651 137.835596,127.228699 C137.413436,126.792297 136.846826,126.574097 136.135767,126.574097 L129.930017,126.574097 C129.219466,126.574097 128.645481,126.792297 128.208063,127.228699 C127.770644,127.6651 127.551935,128.223317 127.551935,128.903351 L127.551935,134.330139 C127.551935,136.009623 128.40719,136.849365 130.1177,136.849365 Z M129.930017,120.72464 L136.135767,120.72464 C136.846826,120.72464 137.413436,120.490163 137.835596,120.02121 C138.257756,119.552256 138.468835,119.009043 138.468835,118.391571 L138.468835,112.920532 C138.468835,112.208964 138.257756,111.634343 137.835596,111.196671 C137.413436,110.758998 136.846826,110.540161 136.135767,110.540161 L129.930017,110.540161 C129.219466,110.540161 128.645481,110.758998 128.208063,111.196671 C127.770644,111.634343 127.551935,112.208964 127.551935,112.920532 L127.551935,118.391571 C127.551935,119.009043 127.770644,119.552256 128.208063,120.02121 C128.645481,120.490163 129.219466,120.72464 129.930017,120.72464 Z M129.930017,104.908142 L136.135767,104.908142 C136.846826,104.908142 137.413436,104.681422 137.835596,104.227982 C138.257756,103.774541 138.468835,103.239848 138.468835,102.623901 L138.468835,97.1505737 C138.468835,96.4405314 138.257756,95.8666738 137.835596,95.4290009 C137.413436,94.9913279 136.846826,94.7724915 136.135767,94.7724915 L129.930017,94.7724915 C129.219466,94.7724915 128.645481,94.9913279 128.208063,95.4290009 C127.770644,95.8666738 127.551935,96.4405314 127.551935,97.1505737 L127.551935,102.623901 C127.551935,103.239848 127.770644,103.774541 128.208063,104.227982 C128.645481,104.681422 129.219466,104.908142 129.930017,104.908142 Z M129.930017,89.234314 L136.135767,89.234314 C136.846826,89.234314 137.413436,89.0075938 137.835596,88.5541534 C138.257756,88.1007131 138.468835,87.5660197 138.468835,86.9500732 L138.468835,81.4294434 C138.468835,80.7183838 138.257756,80.1440175 137.835596,79.7063446 C137.413436,79.2686717 136.846826,79.0498352 136.135767,79.0498352 L129.930017,79.0498352 C129.219466,79.0498352 128.645481,79.2686717 128.208063,79.7063446 C127.770644,80.1440175 127.551935,80.7183838 127.551935,81.4294434 L127.551935,86.9500732 C127.551935,87.5660197 127.770644,88.1007131 128.208063,88.5541534 C128.645481,89.0075938 129.219466,89.234314 129.930017,89.234314 Z M129.930017,73.1057739 L136.135767,73.1057739 C136.846826,73.1057739 137.413436,72.8798167 137.835596,72.4279022 C138.257756,71.9759878 138.468835,71.4412944 138.468835,70.823822 L138.468835,65.2093506 C138.468835,64.4977824 138.257756,63.9235433 137.835596,63.4866333 C137.413436,63.0497233 136.846826,62.8312683 136.135767,62.8312683 L130.1177,62.8312683 C128.40719,62.8312683 127.551935,63.6867778 127.551935,65.3977966 L127.551935,70.823822 C127.551935,71.4412944 127.770644,71.9759878 128.208063,72.4279022 C128.645481,72.8798167 129.219466,73.1057739 129.930017,73.1057739 Z M147.852991,136.849365 L207.374475,136.849365 C208.097742,136.849365 208.667022,136.641719 209.082315,136.226425 C209.497608,135.811132 209.705255,135.226084 209.705255,134.471283 L209.705255,106.286011 C209.705255,105.562744 209.497608,104.993464 209.082315,104.578171 C208.667022,104.162877 208.097742,103.955231 207.374475,103.955231 L147.852991,103.955231 C147.098189,103.955231 146.513142,104.162877 146.097849,104.578171 C145.682555,104.993464 145.474908,105.562744 145.474908,106.286011 L145.474908,134.471283 C145.474908,135.226084 145.682555,135.811132 146.097849,136.226425 C146.513142,136.641719 147.098189,136.849365 147.852991,136.849365 Z M147.852991,95.8192444 L207.374475,95.8192444 C208.097742,95.8192444 208.667022,95.6115977 209.082315,95.1963043 C209.497608,94.7810109 209.705255,94.211731 209.705255,93.4884644 L209.705255,65.1147461 C209.705255,64.3914795 209.497608,63.8300832 209.082315,63.4305573 C208.667022,63.0310313 208.097742,62.8312683 207.374475,62.8312683 L147.852991,62.8312683 C147.098189,62.8312683 146.513142,63.0310313 146.097849,63.4305573 C145.682555,63.8300832 145.474908,64.3914795 145.474908,65.1147461 L145.474908,93.4884644 C145.474908,94.211731 145.682555,94.7810109 146.097849,95.1963043 C146.513142,95.6115977 147.098189,95.8192444 147.852991,95.8192444 Z M219.042871,136.849365 L225.060937,136.849365 C226.772974,136.849365 227.628992,136.009623 227.628992,134.330139 L227.628992,128.903351 C227.628992,128.223317 227.410155,127.6651 226.972482,127.228699 C226.534809,126.792297 225.960189,126.574097 225.248621,126.574097 L219.042871,126.574097 C218.364364,126.574097 217.806273,126.792297 217.3686,127.228699 C216.930928,127.6651 216.712091,128.223317 216.712091,128.903351 L216.712091,134.471283 C216.712091,135.151316 216.930928,135.717672 217.3686,136.170349 C217.806273,136.623027 218.364364,136.849365 219.042871,136.849365 Z M219.042871,120.72464 L225.248621,120.72464 C225.960189,120.72464 226.534809,120.490163 226.972482,120.02121 C227.410155,119.552256 227.628992,119.009043 227.628992,118.391571 L227.628992,112.920532 C227.628992,112.208964 227.417912,111.634343 226.995752,111.196671 C226.573592,110.758998 225.991215,110.540161 225.248621,110.540161 L219.042871,110.540161 C218.364364,110.540161 217.806273,110.758998 217.3686,111.196671 C216.930928,111.634343 216.712091,112.208964 216.712091,112.920532 L216.712091,118.391571 C216.712091,119.009043 216.930928,119.552256 217.3686,120.02121 C217.806273,120.490163 218.364364,120.72464 219.042871,120.72464 Z M219.042871,104.908142 L225.248621,104.908142 C225.960189,104.908142 226.534809,104.681422 226.972482,104.227982 C227.410155,103.774541 227.628992,103.239848 227.628992,102.623901 L227.628992,97.1505737 C227.628992,96.4405314 227.417912,95.8666738 226.995752,95.4290009 C226.573592,94.9913279 225.991215,94.7724915 225.248621,94.7724915 L219.042871,94.7724915 C218.364364,94.7724915 217.806273,94.9913279 217.3686,95.4290009 C216.930928,95.8666738 216.712091,96.4405314 216.712091,97.1505737 L216.712091,102.623901 C216.712091,103.239848 216.930928,103.774541 217.3686,104.227982 C217.806273,104.681422 218.364364,104.908142 219.042871,104.908142 Z M219.042871,89.234314 L225.248621,89.234314 C225.960189,89.234314 226.534809,89.0075938 226.972482,88.5541534 C227.410155,88.1007131 227.628992,87.5660197 227.628992,86.9500732 L227.628992,81.4294434 C227.628992,80.7183838 227.417912,80.1440175 226.995752,79.7063446 C226.573592,79.2686717 225.991215,79.0498352 225.248621,79.0498352 L219.042871,79.0498352 C218.364364,79.0498352 217.806273,79.2686717 217.3686,79.7063446 C216.930928,80.1440175 216.712091,80.7183838 216.712091,81.4294434 L216.712091,86.9500732 C216.712091,87.5660197 216.930928,88.1007131 217.3686,88.5541534 C217.806273,89.0075938 218.364364,89.234314 219.042871,89.234314 Z M219.042871,73.1057739 L225.248621,73.1057739 C225.960189,73.1057739 226.534809,72.8798167 226.972482,72.4279022 C227.410155,71.9759878 227.628992,71.4412944 227.628992,70.823822 L227.628992,65.3977966 C227.628992,63.6867778 226.772974,62.8312683 225.060937,62.8312683 L219.042871,62.8312683 C218.364364,62.8312683 217.806273,63.0497233 217.3686,63.4866333 C216.930928,63.9235433 216.712091,64.4977824 216.712091,65.2093506 L216.712091,70.823822 C216.712091,71.4412944 216.930928,71.9759878 217.3686,72.4279022 C217.806273,72.8798167 218.364364,73.1057739 219.042871,73.1057739 Z" id="Shape" fill-rule="nonzero"></path>
        </g>
    </g>
</svg>