<?xml version="1.0" encoding="UTF-8"?>
<svg width="250px" height="333px" viewBox="0 0 250 333" version="1.1" xmlns="http://www.w3.org/2000/svg" xmlns:xlink="http://www.w3.org/1999/xlink">
    <g id="assets/default_artwork_video_3x4" stroke="none" fill="none" xlink:href="#path-1" fill-rule="evenodd">
        <rect id="Fill" fill="#8E8E93" fill-rule="evenodd" opacity="0.18" x="2.27373675e-13" y="0" width="250" height="333"></rect>
        <g id="Symbol" stroke-width="1" transform="translate(25, 35)" fill="#8E8E93" fill-opacity="0.3">
            <path d="M51.5281677,132.184753 C47.5608826,132.184753 44.4465637,131.05395 42.1852112,128.792343 C39.9238586,126.530736 38.7931824,123.41629 38.7931824,119.449005 L38.7931824,63.3805847 C38.7931824,59.4148254 39.9238586,56.3008881 42.1852112,54.0387726 C44.4465637,51.7766571 47.5608826,50.6455994 51.5281677,50.6455994 L148.474121,50.6455994 C152.43988,50.6455994 155.553818,51.7766571 157.815933,54.0387726 C160.078049,56.3008881 161.209106,59.4148254 161.209106,63.3805847 L161.209106,119.449005 C161.209106,123.41629 160.078049,126.530736 157.815933,128.792343 C155.553818,131.05395 152.43988,132.184753 148.474121,132.184753 L51.5281677,132.184753 Z M51.7570496,124.022064 L148.24295,124.022064 C149.76476,124.022064 150.945536,123.603338 151.785278,122.765884 C152.62502,121.928431 153.044891,120.762278 153.044891,119.267426 L153.044891,63.5644531 C153.044891,62.0696004 152.62502,60.9034475 151.785278,60.0659943 C150.945536,59.2285411 149.76476,58.8098145 148.24295,58.8098145 L51.7570496,58.8098145 C50.2352397,58.8098145 49.0544637,59.2285411 48.2147217,60.0659943 C47.3749797,60.9034475 46.9551086,62.0696004 46.9551086,63.5644531 L46.9551086,119.267426 C46.9551086,120.762278 47.3749797,121.928431 48.2147217,122.765884 C49.0544637,123.603338 50.2352397,124.022064 51.7570496,124.022064 Z M75.3555298,148.844299 C74.2523193,148.844299 73.3009338,148.443883 72.5013733,147.643051 C71.7018127,146.842219 71.3020325,145.892741 71.3020325,144.794617 C71.3020325,143.666484 71.7018127,142.709503 72.5013733,141.923676 C73.3009338,141.137848 74.2523193,140.744934 75.3555298,140.744934 L124.64447,140.744934 C125.747681,140.744934 126.699066,141.137848 127.498627,141.923676 C128.298187,142.709503 128.697968,143.666484 128.697968,144.794617 C128.697968,145.892741 128.298187,146.842219 127.498627,147.643051 C126.699066,148.443883 125.747681,148.844299 124.64447,148.844299 L75.3555298,148.844299 Z" id="Shape" fill-rule="nonzero"></path>
        </g>
    </g>
</svg>