<?xml version="1.0" encoding="UTF-8"?>
<svg viewBox="0 0 250 333" version="1.1" xmlns="http://www.w3.org/2000/svg" xmlns:xlink="http://www.w3.org/1999/xlink">
    <g id="assets/default_artwork_people_3x4" stroke="none" fill="none" xlink:href="#path-1" fill-rule="evenodd">
        <rect id="Fill" fill="#8E8E93" fill-rule="evenodd" opacity="0.18" x="0" y="0" width="250" height="333"></rect>
        <g id="Symbol" stroke-width="1" transform="translate(25, 35)" fill="#8E8E93" fill-opacity="0.34">
            <path d="M66.9634417,143.333588 C64.5393287,143.333588 62.6215532,142.77092 61.2101153,141.645584 C59.7986773,140.520248 59.0929583,138.994751 59.0929583,137.069092 C59.0929583,133.932902 60.0336626,130.639928 61.9150713,127.19017 C63.79648,123.740412 66.5197924,120.502625 70.0850084,117.476807 C73.6502245,114.450989 77.9530759,111.991908 82.9935625,110.099564 C88.0340492,108.207219 93.6973487,107.261047 99.9834612,107.261047 C106.291953,107.261047 111.966188,108.207219 117.006166,110.099564 C122.046144,111.991908 126.343274,114.450989 129.897554,117.476807 C133.451835,120.502625 136.175402,123.740412 138.068254,127.19017 C139.961107,130.639928 140.907533,133.932902 140.907533,137.069092 C140.907533,138.994751 140.201687,140.520248 138.789995,141.645584 C137.378303,142.77092 135.460654,143.333588 133.03705,143.333588 L66.9634417,143.333588 Z M100.059755,98.5185242 C96.5359921,98.5185242 93.3079953,97.5723521 90.3757647,95.6800079 C87.443534,93.7876638 85.0986396,91.2299093 83.3410814,88.0067444 C81.5835233,84.7835795 80.7047442,81.1624146 80.7047442,77.1432495 C80.7047442,73.2609049 81.5887367,69.73231 83.3567217,66.5574646 C85.1247067,63.3826192 87.4749417,60.8576711 90.4074267,58.9826202 C93.3399116,57.1075694 96.5573544,56.1700439 100.059755,56.1700439 C103.563173,56.1700439 106.781125,57.0967611 109.71361,58.9501953 C112.646094,60.8036296 114.993786,63.3123016 116.756685,66.4762115 C118.519584,69.6401215 119.401033,73.1736755 119.401033,77.0768738 C119.401033,81.118927 118.522254,84.7568766 116.764696,87.9907227 C115.007138,91.2245687 112.664659,93.7876638 109.737261,95.6800079 C106.809862,97.5723521 103.584027,98.5185242 100.059755,98.5185242 Z" id="Shape" fill-rule="nonzero"></path>
        </g>
    </g>
</svg>