<?xml version="1.0" encoding="UTF-8"?>
<svg viewBox="0 0 250 333" version="1.1" xmlns="http://www.w3.org/2000/svg" xmlns:xlink="http://www.w3.org/1999/xlink">
    <g id="assets/default_artwork_playlist_genius_3x4" stroke="none" fill="none" xlink:href="#path-1" fill-rule="evenodd">
        <rect id="Fill" fill="#8E8E93" fill-rule="evenodd" opacity="0.18" x="0" y="0" width="250" height="333"></rect>
        <g id="Symbol" stroke-width="1" transform="translate(25, 35)" fill="#8E8E93" fill-opacity="0.34">
            <path d="M100.812081,158.012543 C97.3712236,158.012543 94.2611009,156.644847 91.4817125,153.909454 C88.702324,151.174062 86.322843,147.252553 84.3432695,142.144928 C82.3636959,137.037303 80.8446834,130.90772 79.7862321,123.75618 C78.7277808,116.60464 78.1985551,108.601278 78.1985551,99.7460938 C78.1985551,90.9417725 78.7277808,82.9817708 79.7862321,75.8660889 C80.8446834,68.7504069 82.3636959,62.6513418 84.3432695,57.5688934 C86.322843,52.4864451 88.702324,48.5801951 91.4817125,45.8501434 C94.2611009,43.1200918 97.3712236,41.7550659 100.812081,41.7550659 C104.253955,41.7550659 107.364332,43.1200918 110.143211,45.8501434 C112.922091,48.5801951 115.301318,52.4860636 117.280892,57.567749 C119.260465,62.6494344 120.779478,68.7484996 121.837929,75.8649445 C122.89638,82.9813894 123.425606,90.9417725 123.425606,99.7460938 C123.425606,108.601278 122.89638,116.605021 121.837929,123.757324 C120.779478,130.909627 119.260465,137.039464 117.280892,142.146835 C115.301318,147.254206 112.922091,151.175334 110.143211,153.910217 C107.364332,156.645101 104.253955,158.012543 100.812081,158.012543 Z M100.812081,152.173004 C104.094246,152.173004 106.961627,150.015666 109.414223,145.700989 C111.866819,141.386312 113.771497,135.303141 115.128258,127.451477 C116.485019,119.599813 117.163399,110.364685 117.163399,99.7460937 C117.163399,89.188029 116.485019,80.0033824 115.128258,72.1921539 C113.771497,64.3809255 111.866819,58.3283997 109.414223,54.0345764 C106.961627,49.7407532 104.094246,47.5938416 100.812081,47.5938416 C97.5090613,47.5938416 94.6313808,49.7410075 92.1790391,54.0353394 C89.7266974,58.3296712 87.8301571,64.3821971 86.4894181,72.1929169 C85.1486792,80.0036367 84.4783098,89.188029 84.4783098,99.7460937 C84.4783098,110.363668 85.1486792,119.598541 86.4894181,127.450714 C87.8301571,135.302887 89.7266974,141.386312 92.1790391,145.700989 C94.6313808,150.015666 97.5090613,152.173004 100.812081,152.173004 Z M50.4573137,128.887329 C48.7585018,125.907288 48.3978858,122.538528 49.3754655,118.781052 C50.3530453,115.023575 52.5567959,111.012166 55.9867173,106.746826 C59.4166388,102.481486 63.9598161,98.1027222 69.6162492,93.6105347 C75.2726823,89.1183472 81.9407731,84.6477763 89.6205217,80.198822 C97.239235,75.7915751 104.39904,72.2681936 111.099938,69.6286774 C117.800835,66.9891612 123.848147,65.2530924 129.241875,64.4204712 C134.635602,63.5878499 139.200651,63.6936442 142.937019,64.737854 C146.673388,65.7820638 149.41285,67.7944438 151.155403,70.7749939 C152.875069,73.777415 153.248528,77.16067 152.27578,80.9247589 C151.303032,84.6888479 149.109327,88.6930084 145.694664,92.9372406 C142.280001,97.1814728 137.754245,101.542053 132.117394,106.018982 C126.480543,110.495911 119.84742,114.927317 112.218025,119.313202 C104.528104,123.751475 97.3175635,127.300288 90.586403,129.959641 C83.8552425,132.618993 77.7849148,134.367523 72.3754197,135.205231 C66.9659247,136.042938 62.3905768,135.942103 58.649376,134.902725 C54.9081753,133.863347 52.1774878,131.858215 50.4573137,128.887329 Z M55.5339128,125.952301 C57.1905086,128.806203 60.4888231,130.218658 65.428856,130.190104 C70.368889,130.160675 76.5756557,128.765132 84.0491563,126.003036 C91.5226569,123.240941 99.8708675,119.196981 109.093788,113.871155 C118.235329,108.610942 125.854678,103.446096 131.951836,98.3766174 C138.048994,93.3071391 142.339129,88.6396027 144.822243,84.3740082 C147.305356,80.1084137 147.713275,76.5649414 146.045998,73.7435913 C144.419919,70.879008 141.133431,69.4534556 136.186531,69.4668395 C131.239632,69.4804128 125.047361,70.8557383 117.609718,73.5929108 C110.172076,76.3300832 101.888334,80.3402201 92.7584916,85.6233215 C83.5248897,90.9588114 75.8473029,96.1764272 69.725731,101.276169 C63.6041592,106.37591 59.2968573,111.052856 56.8038255,115.307007 C54.3107937,119.561157 53.8874894,123.109589 55.5339128,125.952301 Z M151.155403,128.887329 C149.433195,131.858215 146.696276,133.863347 142.944649,134.902725 C139.193021,135.942103 134.612841,136.042938 129.204109,135.205231 C123.795377,134.367523 117.725304,132.618993 110.993889,129.959641 C104.262474,127.300288 97.0622331,123.751475 89.3931657,119.313202 C81.7637712,114.927317 75.1251807,110.495911 69.4773942,106.018982 C63.8296078,101.542053 59.3038509,97.1814728 55.9001237,92.9372406 C52.4963965,88.6930084 50.308159,84.6888479 49.3354112,80.9247589 C48.3626634,77.16067 48.7366309,73.777415 50.4573137,70.7749939 C52.1774878,67.7944438 54.9108456,65.7820638 58.6573869,64.737854 C62.4039282,63.6936442 66.9715196,63.5878499 72.3601609,64.4204712 C77.7488023,65.2530924 83.7910285,66.9891612 90.4868394,69.6286774 C97.1826504,72.2681936 104.350594,75.7915751 111.990669,80.198822 C119.649056,84.6477763 126.311806,89.1183472 131.97892,93.6105347 C137.646034,98.1027222 142.194552,102.481486 145.624474,106.746826 C149.054395,111.012166 151.258273,115.023575 152.236107,118.781052 C153.213941,122.538528 152.853706,125.907288 151.155403,128.887329 Z M146.045998,125.952301 C147.713275,123.109589 147.295057,119.561157 144.791344,115.307007 C142.287631,111.052856 137.974988,106.37591 131.853417,101.276169 C125.731845,96.1764272 118.05909,90.9588114 108.835152,85.6233215 C99.7170081,80.3402201 91.4361904,76.3300832 83.9926988,73.5929108 C76.5492072,70.8557383 70.3517228,69.4804128 65.4002458,69.4668395 C60.4487687,69.4534556 57.1599911,70.879008 55.5339128,73.7435913 C53.8666358,76.5649414 54.2797675,80.1084137 56.7733079,84.3740082 C59.2668484,88.6396027 63.5569841,93.3071391 69.643715,98.3766174 C75.730446,103.446096 83.3491594,108.610942 92.4998552,113.871155 C101.744647,119.196981 110.098452,123.240941 117.561272,126.003036 C125.024091,128.765132 131.228315,130.160675 136.173943,130.190104 C141.119571,130.218658 144.410256,128.806203 146.045998,125.952301 Z M113.300636,63.0273438 C111.002663,63.0273438 109.02932,62.2029877 107.380608,60.5542755 C105.731896,58.9055634 104.907539,56.9314575 104.907539,54.631958 C104.907539,52.3436483 105.731896,50.3723399 107.380608,48.7180328 C109.02932,47.0637258 111.002663,46.2365723 113.300636,46.2365723 C115.566567,46.2365723 117.537748,47.0716095 119.21418,48.741684 C120.890612,50.4117584 121.728829,52.3751831 121.728829,54.631958 C121.728829,56.9314575 120.899005,58.9055634 119.239357,60.5542755 C117.579709,62.2029877 115.600136,63.0273438 113.300636,63.0273438 Z M55.6529313,121.116791 C54.1295956,121.116791 52.7251512,120.730743 51.4395982,119.958649 C50.1540452,119.186554 49.1303076,118.163325 48.3683854,116.888962 C47.6064632,115.614599 47.2255021,114.204305 47.2255021,112.658081 C47.2255021,110.361125 48.0532914,108.382823 49.7088701,106.723175 C51.3644487,105.063527 53.3458024,104.233195 55.6529313,104.232178 C57.1666032,104.232178 58.5660885,104.620641 59.8513871,105.397568 C61.1366858,106.174494 62.1680528,107.200394 62.9454881,108.475266 C63.7229234,109.750137 64.111642,111.144409 64.111642,112.658081 C64.1126583,114.967244 63.280037,116.95432 61.6137773,118.619308 C59.9475175,120.284297 57.9605689,121.116791 55.6529313,121.116791 Z M134.900978,141.365967 C132.592832,141.365967 130.606265,140.544027 128.941277,138.900146 C127.276288,137.256266 126.443286,135.281016 126.442268,132.974396 C126.442268,131.428172 126.828316,130.017624 127.600411,128.742752 C128.372505,127.46788 129.395734,126.449738 130.670097,125.688324 C131.944461,124.92691 133.354754,124.546204 134.900978,124.546204 C136.413633,124.546204 137.80765,124.929326 139.083031,125.695572 C140.358411,126.461817 141.384819,127.482376 142.162254,128.757248 C142.93969,130.03212 143.328407,131.437836 143.328407,132.974396 C143.328407,134.497732 142.942233,135.896581 142.169884,137.170944 C141.397535,138.445307 140.373797,139.463069 139.098671,140.224228 C137.823545,140.985387 136.424314,141.365967 134.900978,141.365967 Z" id="Shape" fill-rule="nonzero"></path>
        </g>
    </g>
</svg>