<?xml version="1.0" encoding="UTF-8"?>
<svg viewBox="0 0 250 333" version="1.1" xmlns="http://www.w3.org/2000/svg" xmlns:xlink="http://www.w3.org/1999/xlink">
    <g id="assets/default_artwork_movie_3x4" stroke="none" fill="none" xlink:href="#path-1" fill-rule="evenodd">
        <rect id="Fill" fill="#8E8E93" fill-rule="evenodd" opacity="0.18" x="0" y="0" width="250" height="333"></rect>
        <g id="Symbol" stroke-width="1" transform="translate(25, 35)" fill="#8E8E93" fill-opacity="0.34">
            <path d="M52.4635315,144.939575 C49.4188944,144.939575 46.9771067,144.035873 45.1381683,142.22847 C43.2992299,140.421066 42.3797607,138.011068 42.3797607,134.998474 L42.3797607,64.6417236 C42.3797607,61.6581217 43.2992299,59.2628733 45.1381683,57.4559784 C46.9771067,55.6490835 49.4188944,54.745636 52.4635315,54.745636 L147.537994,54.745636 C150.614166,54.745636 153.063583,55.6490835 154.886246,57.4559784 C156.708908,59.2628733 157.620239,61.6581217 157.620239,64.6417236 L157.620239,134.998474 C157.620239,138.011068 156.708908,140.421066 154.886246,142.22847 C153.063583,144.035873 150.614166,144.939575 147.537994,144.939575 L52.4635315,144.939575 Z M52.5177002,136.849365 L58.5357666,136.849365 C59.2468262,136.849365 59.8134359,136.623027 60.2355957,136.170349 C60.6577555,135.717672 60.8688354,135.151316 60.8688354,134.471283 L60.8688354,128.903351 C60.8688354,128.223317 60.6577555,127.6651 60.2355957,127.228699 C59.8134359,126.792297 59.2468262,126.574097 58.5357666,126.574097 L52.3300171,126.574097 C51.6194661,126.574097 51.0454814,126.792297 50.6080627,127.228699 C50.1706441,127.6651 49.9519348,128.223317 49.9519348,128.903351 L49.9519348,134.330139 C49.9519348,136.009623 50.8071899,136.849365 52.5177002,136.849365 Z M52.3300171,120.72464 L58.5357666,120.72464 C59.2468262,120.72464 59.8134359,120.490163 60.2355957,120.02121 C60.6577555,119.552256 60.8688354,119.009043 60.8688354,118.391571 L60.8688354,112.920532 C60.8688354,112.208964 60.6577555,111.634343 60.2355957,111.196671 C59.8134359,110.758998 59.2468262,110.540161 58.5357666,110.540161 L52.3300171,110.540161 C51.6194661,110.540161 51.0454814,110.758998 50.6080627,111.196671 C50.1706441,111.634343 49.9519348,112.208964 49.9519348,112.920532 L49.9519348,118.391571 C49.9519348,119.009043 50.1706441,119.552256 50.6080627,120.02121 C51.0454814,120.490163 51.6194661,120.72464 52.3300171,120.72464 Z M52.3300171,104.908142 L58.5357666,104.908142 C59.2468262,104.908142 59.8134359,104.681422 60.2355957,104.227982 C60.6577555,103.774541 60.8688354,103.239848 60.8688354,102.623901 L60.8688354,97.1505737 C60.8688354,96.4405314 60.6577555,95.8666738 60.2355957,95.4290009 C59.8134359,94.9913279 59.2468262,94.7724915 58.5357666,94.7724915 L52.3300171,94.7724915 C51.6194661,94.7724915 51.0454814,94.9913279 50.6080627,95.4290009 C50.1706441,95.8666738 49.9519348,96.4405314 49.9519348,97.1505737 L49.9519348,102.623901 C49.9519348,103.239848 50.1706441,103.774541 50.6080627,104.227982 C51.0454814,104.681422 51.6194661,104.908142 52.3300171,104.908142 Z M52.3300171,89.234314 L58.5357666,89.234314 C59.2468262,89.234314 59.8134359,89.0075938 60.2355957,88.5541534 C60.6577555,88.1007131 60.8688354,87.5660197 60.8688354,86.9500732 L60.8688354,81.4294434 C60.8688354,80.7183838 60.6577555,80.1440175 60.2355957,79.7063446 C59.8134359,79.2686717 59.2468262,79.0498352 58.5357666,79.0498352 L52.3300171,79.0498352 C51.6194661,79.0498352 51.0454814,79.2686717 50.6080627,79.7063446 C50.1706441,80.1440175 49.9519348,80.7183838 49.9519348,81.4294434 L49.9519348,86.9500732 C49.9519348,87.5660197 50.1706441,88.1007131 50.6080627,88.5541534 C51.0454814,89.0075938 51.6194661,89.234314 52.3300171,89.234314 Z M52.3300171,73.1057739 L58.5357666,73.1057739 C59.2468262,73.1057739 59.8134359,72.8798167 60.2355957,72.4279022 C60.6577555,71.9759878 60.8688354,71.4412944 60.8688354,70.823822 L60.8688354,65.2093506 C60.8688354,64.4977824 60.6577555,63.9235433 60.2355957,63.4866333 C59.8134359,63.0497233 59.2468262,62.8312683 58.5357666,62.8312683 L52.5177002,62.8312683 C50.8071899,62.8312683 49.9519348,63.6867778 49.9519348,65.3977966 L49.9519348,70.823822 C49.9519348,71.4412944 50.1706441,71.9759878 50.6080627,72.4279022 C51.0454814,72.8798167 51.6194661,73.1057739 52.3300171,73.1057739 Z M70.2529907,136.849365 L129.774475,136.849365 C130.497742,136.849365 131.067022,136.641719 131.482315,136.226425 C131.897608,135.811132 132.105255,135.226084 132.105255,134.471283 L132.105255,106.286011 C132.105255,105.562744 131.897608,104.993464 131.482315,104.578171 C131.067022,104.162877 130.497742,103.955231 129.774475,103.955231 L70.2529907,103.955231 C69.4981893,103.955231 68.9131419,104.162877 68.4978485,104.578171 C68.0825551,104.993464 67.8749084,105.562744 67.8749084,106.286011 L67.8749084,134.471283 C67.8749084,135.226084 68.0825551,135.811132 68.4978485,136.226425 C68.9131419,136.641719 69.4981893,136.849365 70.2529907,136.849365 Z M70.2529907,95.8192444 L129.774475,95.8192444 C130.497742,95.8192444 131.067022,95.6115977 131.482315,95.1963043 C131.897608,94.7810109 132.105255,94.211731 132.105255,93.4884644 L132.105255,65.1147461 C132.105255,64.3914795 131.897608,63.8300832 131.482315,63.4305573 C131.067022,63.0310313 130.497742,62.8312683 129.774475,62.8312683 L70.2529907,62.8312683 C69.4981893,62.8312683 68.9131419,63.0310313 68.4978485,63.4305573 C68.0825551,63.8300832 67.8749084,64.3914795 67.8749084,65.1147461 L67.8749084,93.4884644 C67.8749084,94.211731 68.0825551,94.7810109 68.4978485,95.1963043 C68.9131419,95.6115977 69.4981893,95.8192444 70.2529907,95.8192444 Z M141.442871,136.849365 L147.460937,136.849365 C149.172974,136.849365 150.028992,136.009623 150.028992,134.330139 L150.028992,128.903351 C150.028992,128.223317 149.810155,127.6651 149.372482,127.228699 C148.934809,126.792297 148.360189,126.574097 147.648621,126.574097 L141.442871,126.574097 C140.764364,126.574097 140.206273,126.792297 139.7686,127.228699 C139.330928,127.6651 139.112091,128.223317 139.112091,128.903351 L139.112091,134.471283 C139.112091,135.151316 139.330928,135.717672 139.7686,136.170349 C140.206273,136.623027 140.764364,136.849365 141.442871,136.849365 Z M141.442871,120.72464 L147.648621,120.72464 C148.360189,120.72464 148.934809,120.490163 149.372482,120.02121 C149.810155,119.552256 150.028992,119.009043 150.028992,118.391571 L150.028992,112.920532 C150.028992,112.208964 149.817912,111.634343 149.395752,111.196671 C148.973592,110.758998 148.391215,110.540161 147.648621,110.540161 L141.442871,110.540161 C140.764364,110.540161 140.206273,110.758998 139.7686,111.196671 C139.330928,111.634343 139.112091,112.208964 139.112091,112.920532 L139.112091,118.391571 C139.112091,119.009043 139.330928,119.552256 139.7686,120.02121 C140.206273,120.490163 140.764364,120.72464 141.442871,120.72464 Z M141.442871,104.908142 L147.648621,104.908142 C148.360189,104.908142 148.934809,104.681422 149.372482,104.227982 C149.810155,103.774541 150.028992,103.239848 150.028992,102.623901 L150.028992,97.1505737 C150.028992,96.4405314 149.817912,95.8666738 149.395752,95.4290009 C148.973592,94.9913279 148.391215,94.7724915 147.648621,94.7724915 L141.442871,94.7724915 C140.764364,94.7724915 140.206273,94.9913279 139.7686,95.4290009 C139.330928,95.8666738 139.112091,96.4405314 139.112091,97.1505737 L139.112091,102.623901 C139.112091,103.239848 139.330928,103.774541 139.7686,104.227982 C140.206273,104.681422 140.764364,104.908142 141.442871,104.908142 Z M141.442871,89.234314 L147.648621,89.234314 C148.360189,89.234314 148.934809,89.0075938 149.372482,88.5541534 C149.810155,88.1007131 150.028992,87.5660197 150.028992,86.9500732 L150.028992,81.4294434 C150.028992,80.7183838 149.817912,80.1440175 149.395752,79.7063446 C148.973592,79.2686717 148.391215,79.0498352 147.648621,79.0498352 L141.442871,79.0498352 C140.764364,79.0498352 140.206273,79.2686717 139.7686,79.7063446 C139.330928,80.1440175 139.112091,80.7183838 139.112091,81.4294434 L139.112091,86.9500732 C139.112091,87.5660197 139.330928,88.1007131 139.7686,88.5541534 C140.206273,89.0075938 140.764364,89.234314 141.442871,89.234314 Z M141.442871,73.1057739 L147.648621,73.1057739 C148.360189,73.1057739 148.934809,72.8798167 149.372482,72.4279022 C149.810155,71.9759878 150.028992,71.4412944 150.028992,70.823822 L150.028992,65.3977966 C150.028992,63.6867778 149.172974,62.8312683 147.460937,62.8312683 L141.442871,62.8312683 C140.764364,62.8312683 140.206273,63.0497233 139.7686,63.4866333 C139.330928,63.9235433 139.112091,64.4977824 139.112091,65.2093506 L139.112091,70.823822 C139.112091,71.4412944 139.330928,71.9759878 139.7686,72.4279022 C140.206273,72.8798167 140.764364,73.1057739 141.442871,73.1057739 Z" id="Shape" fill-rule="nonzero"></path>
        </g>
    </g>
</svg>