<?xml version="1.0" encoding="UTF-8"?>
<svg viewBox="0 0 100 100" version="1.1" xmlns="http://www.w3.org/2000/svg" xmlns:xlink="http://www.w3.org/1999/xlink">
    <g id="assets/default_artwork_playlist_folder" stroke="none" stroke-width="1" fill="none" fill-rule="evenodd">
        <rect id="Fill" fill="#8E8E93" opacity="0.18" x="0" y="0" width="100" height="100"></rect>
        <g id="Symbol" transform="translate(27.935110, 32.266907)" fill="#8E8E93" fill-rule="nonzero" opacity="0.34">
            <path d="M5.75134277,35.0900269 L38.3901978,35.0900269 C40.0981649,35.0900269 41.4198812,34.6100871 42.3553467,33.6502075 C43.2908122,32.690328 43.7585449,31.2689209 43.7585449,29.3859863 L43.7585449,9.296875 C43.7585449,7.42696126 43.2739766,6.00982666 42.3048401,5.04547119 C41.3357035,4.08111572 39.9031576,3.59893799 38.0072021,3.59893799 L19.1220093,3.59893799 C18.3759562,3.59893799 17.7689107,3.51409912 17.3008728,3.34442139 C16.8328349,3.17474365 16.3431803,2.86315918 15.8319092,2.40966797 L14.7021484,1.4453125 C14.2765299,1.06445312 13.8743591,0.770874023 13.495636,0.564575195 C13.1169128,0.358276367 12.6981608,0.212605794 12.2393799,0.127563477 C11.780599,0.0425211589 11.2259928,0 10.5755615,0 L5.0213623,0 C3.39294434,0 2.14894613,0.443166097 1.28936768,1.32949829 C0.429789225,2.21583049 0,3.54980469 0,5.3314209 L0,29.3859863 C0,31.2770589 0.482381185,32.7005005 1.44714355,33.656311 C2.41190592,34.6121216 3.846639,35.0900269 5.75134277,35.0900269 Z M5.79650879,32.684021 C4.69278971,32.684021 3.85182699,32.3971049 3.27362061,31.8232727 C2.69541423,31.2494405 2.40631104,30.3972371 2.40631104,29.2666626 L2.40631104,5.4888916 C2.40631104,4.4514974 2.66601562,3.6730957 3.1854248,3.15368652 C3.70483398,2.63427734 4.47021484,2.37457275 5.48156738,2.37457275 L9.99633789,2.37457275 C10.7171631,2.37457275 11.3062541,2.46261597 11.7636108,2.63870239 C12.2209676,2.81478882 12.7113851,3.13781738 13.2348633,3.60778809 L14.3588257,4.58557129 C14.7630819,4.9412028 15.1598612,5.22216797 15.5491638,5.4284668 C15.9384664,5.63476562 16.3698832,5.78145345 16.8434143,5.86853027 C17.3169454,5.9556071 17.8789266,5.99914551 18.5293579,5.99914551 L37.9486084,5.99914551 C39.0270996,5.99914551 39.8650614,6.28926595 40.4624939,6.86950684 C41.0599264,7.44974772 41.3586426,8.30312093 41.3586426,9.42962646 L41.3586426,29.2800903 C41.3586426,30.4017131 41.0599264,31.2494405 40.4624939,31.8232727 C39.8650614,32.3971049 39.0270996,32.684021 37.9486084,32.684021 L5.79650879,32.684021 Z M1.44042969,13.2089233 L42.3297119,13.2089233 L42.3297119,10.9365845 L1.44042969,10.9365845 L1.44042969,13.2089233 Z" id="Shape"></path>
        </g>
    </g>
</svg>