<?xml version="1.0" encoding="UTF-8"?>
<svg viewBox="0 0 130 56" version="1.1" xmlns="http://www.w3.org/2000/svg" xmlns:xlink="http://www.w3.org/1999/xlink">
    <title>assets/dolbyvision_stack.contrast-high</title>
    <g id="assets/dolbyvision_stack.contrast-high" stroke="none" stroke-width="1" fill="none" fill-rule="evenodd">
        <g id="dolbyvision.theme-dark" transform="translate(2.000000, 2.000000)" fill="#FFFFFF" fill-rule="nonzero" stroke="#000000" stroke-width="2">
            <path d="M93.9226967,34.2207856 L100.132819,44.2794277 L100.170571,34.2207856 L105.136823,34.2207856 L105.136823,53 L99.8044741,53 L93.4328018,42.5704777 L93.3946046,53 L88.4282625,53 L88.4282625,34.2207856 L93.9226967,34.2207856 Z M76.7027096,34.2207856 C78.0702481,34.2207856 79.3304682,34.4397222 80.4848384,34.8703391 C81.661719,35.3101521 82.678346,35.9381351 83.536031,36.749836 C84.3986977,37.5662516 85.0731728,38.5557612 85.5561643,39.7214902 C86.0291472,40.8652272 86.2710011,42.1459449 86.2710011,43.565178 C86.2710011,44.953686 86.0297009,46.2198269 85.5559965,47.3645609 C85.0757166,48.5245015 84.4053075,49.5216259 83.5470997,50.3587889 C82.6911804,51.1940969 81.6764877,51.8460722 80.5020407,52.3098834 C79.3428098,52.7676191 78.0767108,53 76.7027096,53 C75.3424113,53 74.0864576,52.7673574 72.9350598,52.3090564 C71.7665143,51.8446071 70.7590255,51.1917306 69.910857,50.3555551 C69.0616417,49.5190965 68.3959361,48.5230668 67.9165466,47.3643685 C67.4429218,46.2198269 67.2012872,44.9536807 67.2012872,43.565178 C67.2012872,42.1459502 67.4434755,40.8652272 67.9166084,39.7211276 C68.3984812,38.5571874 69.0682403,37.5687556 69.9215571,36.753324 C70.7718406,35.940431 71.7812975,35.3115391 72.9524429,34.8710539 C74.0988497,34.4399668 75.3488913,34.2207856 76.7027096,34.2207856 Z M76.7254451,38.9477903 C76.0869188,38.9477903 75.5075294,39.0594387 74.9903139,39.2931015 C74.4780854,39.5247805 74.036787,39.8424928 73.6678841,40.2478856 C73.2924691,40.6609833 73.0035914,41.14579 72.798696,41.7001857 C72.5862472,42.2740604 72.4828958,42.896256 72.4828958,43.5661865 C72.4828958,44.2647903 72.5860365,44.9064632 72.7995561,45.4886467 C73.0038279,46.0473704 73.2944249,46.5332797 73.6739546,46.9446528 C74.0477949,47.3495691 74.4915874,47.6639621 75.0036453,47.8896459 C75.5221358,48.1181649 76.0968517,48.2276124 76.7254451,48.2276124 C77.3562629,48.2276124 77.9355604,48.1172548 78.4617921,47.8879595 C78.9789603,47.6626136 79.4250155,47.3490036 79.7985756,46.9443907 C80.1781658,46.5329521 80.4686005,46.0465888 80.6734942,45.4883923 C80.8865339,44.9067442 80.9893926,44.2649348 80.9893926,43.5661865 C80.9893926,42.8961129 80.886324,42.2737795 80.6742995,41.7002898 C80.4687937,41.1464568 80.1796808,40.6611315 79.8037164,40.247129 C79.4360226,39.8430656 78.99217,39.5261803 78.4744425,39.2946752 C77.9500597,39.0603456 77.3661555,38.9477903 76.7254451,38.9477903 Z M65.2342689,34.2207856 L65.2342689,53 L60.2642711,53 L60.2642711,34.2207856 L65.2342689,34.2207856 Z M42.8858963,34.2207856 L42.8858963,53 L37.9158984,53 L37.9158984,34.2207856 L42.8858963,34.2207856 Z M23.8924912,34.2207856 L27.7974216,45.1943272 L31.8225081,34.2207856 L37.2021804,34.2207856 L29.7099741,53 L25.7819369,53 L18.3952548,34.2207856 L23.8924912,34.2207856 Z M52.1453112,34.2241473 C53.0570798,34.2241473 53.9818508,34.38325 54.9193204,34.7055717 C56.2082076,35.1494067 57.2683033,35.8919757 58.1093468,36.9239517 L54.8535954,40.5161509 L54.1242275,39.5641182 C53.9118705,39.286932 53.604903,39.0647016 53.2210061,38.879178 C52.8202644,38.686377 52.4177675,38.5847276 52.010904,38.5847276 C51.7641579,38.5847276 51.5174915,38.6163189 51.2717381,38.6780919 C51.0525055,38.7333675 50.8524331,38.8170756 50.6733292,38.9320396 C50.5307458,39.0236263 50.4147121,39.1437473 50.3235366,39.2912826 C50.7707297,40.5168244 51.012067,40.7335504 51.26091,40.8391573 L51.3444283,40.8714755 C51.7016206,41.0004306 52.0950824,41.1295931 52.5240958,41.2591923 C53.0672633,41.4359424 53.6094641,41.6290456 54.171655,41.8457042 C54.8041046,42.0899796 55.3842294,42.4124127 55.9145581,42.8139946 C56.4776977,43.241881 56.9414468,43.7792889 57.3024727,44.4301757 C57.6649771,45.0848991 57.8636056,45.8947943 57.8636056,46.8703938 C57.8636056,47.8950448 57.6663548,48.7859294 57.2916347,49.5487138 C56.9111598,50.3227944 56.4019283,50.9622585 55.7682438,51.4723783 C55.1493799,51.9698499 54.4260626,52.3460346 53.5949292,52.5949391 C52.8033597,52.8318821 51.9696126,52.9519278 51.0944609,52.9519278 C49.9424088,52.9519278 48.8152163,52.7386317 47.7131189,52.3105253 C46.2465287,51.7406393 45.1249026,50.8153811 44.3360009,49.5525512 L47.9957534,46.1179953 C48.2315678,47.0847759 48.8002587,47.7554498 49.6639747,48.1744427 C50.1643963,48.417459 50.6549992,48.5459647 51.138929,48.5459647 C51.3903583,48.5459647 51.6477972,48.5135439 51.912539,48.4497231 C52.1279378,48.3981681 52.3229824,48.3121428 52.4964359,48.1896834 C52.6547119,48.0778613 52.7830302,47.9376945 52.8813746,47.7700023 C52.9731727,47.613347 53.0012673,47.4149604 53.0012673,47.1853844 C52.7708516,46.5408295 52.6051529,46.3964454 52.4022869,46.2711481 C52.1331364,46.104805 51.813768,45.9630897 51.4475339,45.8402542 C50.7252846,45.5983211 50.3893172,45.4857945 50.0449556,45.3701205 C49.5372742,45.2104339 49.0298954,45.0189325 48.5227406,44.7955966 C47.9453947,44.5417577 47.4270006,44.2061672 46.967742,43.7890776 C46.4937276,43.359426 46.1051011,42.8333765 45.8078943,42.2068027 C45.5150204,41.59019 45.353431,40.8241925 45.353431,39.9005973 C45.353431,38.8965052 45.5739789,38.0359668 45.9893303,37.3114885 C46.398997,36.5977469 46.9365797,36.0077151 47.6013742,35.5411759 C48.2376362,35.0941112 48.9602035,34.7588488 49.7709986,34.539912 C50.5497882,34.3291382 51.3413525,34.2241473 52.1453112,34.2241473 Z M111.157249,6.46060355 L115.259886,15.7356309 L119.362813,6.46060355 L125.539637,6.46060355 L120.923933,16.8314165 L120.60608,17.5456039 L120.286668,18.2632955 L119.807438,19.3400862 C117.530382,24.4564403 115.463284,29.1009505 115.462728,29.102064 C114.820236,30.5497536 113.651655,31.6010518 112.28482,32.1294878 C110.914952,32.6590962 109.346429,32.6636102 107.907509,32.0181333 L105.740338,31.0459162 L106.585037,29.1096242 L108.011903,25.8886101 L109.452312,26.5341326 C109.688336,26.6400097 109.945475,26.6382195 110.169897,26.5514554 C110.397291,26.4635422 110.591519,26.2884714 110.6971,26.0505446 L111.994603,23.1005626 L105.015932,6.46060355 L111.157249,6.46060355 Z M94.5337002,-0.995965969 L94.5337002,7.25538575 C95.6871351,6.74152908 96.9622308,6.45556101 98.3028152,6.45556101 C100.879134,6.45556101 103.21549,7.50818536 104.907453,9.20937315 C106.597451,10.9085856 107.644086,13.254692 107.644086,15.8423108 C107.644086,18.4297777 106.597436,20.7758254 104.907402,22.4750056 C103.215445,24.1761194 100.879109,25.2287244 98.3028152,25.2287244 C96.9622308,25.2287244 95.6871351,24.9427563 94.5337002,24.4288996 L94.5337002,25.2334307 L88.8773033,25.2334307 L88.8769414,-0.995965969 L94.5337002,-0.995965969 Z M98.3028152,11.7550619 C97.4292075,11.7550619 96.6178108,12.0375048 95.9560094,12.5176691 C95.2765098,13.0106741 94.75401,13.7114788 94.4829753,14.5296984 C94.3495311,14.9324838 94.2739132,15.3624367 94.2739132,15.8113832 C94.2739132,16.2578202 94.3496862,16.6868497 94.4830856,17.0900393 C94.7534291,17.9068627 95.274809,18.6114144 95.9571795,19.1070315 C96.6157008,19.5853265 97.4248165,19.8680407 98.3028152,19.8680407 C99.4110405,19.8680407 100.419969,19.4140644 101.150911,18.6791374 C101.879635,17.94644 102.332052,16.9341398 102.332052,15.8113832 C102.332052,14.6977708 101.875449,13.68385 101.143404,12.9478624 C100.413327,12.2138534 99.4078111,11.7550619 98.3028152,11.7550619 Z M87.8106656,-0.9956298 L87.8106656,25.2334307 L82.1612762,25.2334307 L82.1612762,-0.9956298 L87.8106656,-0.9956298 Z M72.4595212,6.45455251 C75.0356888,6.45455251 77.3719869,7.50719221 79.0639175,9.20841594 C80.753842,10.9076226 81.8004573,13.2537086 81.8004573,15.8413023 C81.8004573,18.4287441 80.7538266,20.7747714 79.0638664,22.4739458 C77.3719416,24.1750956 75.0356639,25.2277159 72.4595212,25.2277159 C69.8832273,25.2277159 67.5468913,24.1751109 65.8549345,22.4739972 C64.1649008,20.774817 63.1182507,18.4287692 63.1182507,15.8413023 C63.1182507,13.2536835 64.1648854,10.907577 65.8548834,9.2083646 C67.5468461,7.50717684 69.8832024,6.45455251 72.4595212,6.45455251 Z M72.4595212,11.7537173 C71.3512961,11.7537173 70.3423673,12.2076936 69.6114256,12.9426206 C68.8827015,13.6753179 68.4302848,14.6876181 68.4302848,15.8103747 C68.4302848,16.9274168 68.882024,17.9448766 69.6149432,18.681792 C70.3416718,19.4124829 71.3455001,19.8670321 72.4595212,19.8670321 C73.5676375,19.8670321 74.5765186,19.413094 75.3074196,18.678159 C76.0360607,17.9454964 76.4884233,16.9332213 76.4884233,15.8103747 C76.4884233,14.6966265 76.0318444,13.6826275 75.2998449,12.9465879 C74.5698194,12.2125334 73.5643821,11.7537173 72.4595212,11.7537173 Z M50.2301758,-1 C53.8249185,-1 57.085128,0.469408101 59.4463074,2.84346134 C61.8054633,5.21548018 63.2666411,8.49040329 63.2666411,12.102092 C63.2666411,15.7137945 61.8054496,18.9888198 59.4462718,21.3609266 C57.0850929,23.7350453 53.8248972,25.2045202 50.2301758,25.2045202 L40.5358357,25.2045202 L40.5358357,-1 L50.2301758,-1 Z M50.2298415,4.66962323 L46.1852251,4.66962323 L46.1852251,19.534897 L50.2298415,19.534897 C52.2640945,19.534897 54.1096733,18.7002309 55.4471023,17.3555098 C56.7864972,16.0088121 57.6169174,14.1501795 57.6169174,12.102092 C57.6169174,10.0540412 56.7865231,8.19551244 55.4471618,6.84890215 C54.1097246,5.50422644 52.26412,4.66962323 50.2298415,4.66962323 Z M35.2464186,-0.999663831 L35.2464186,25.204184 L30.6949926,25.204184 C27.1033734,25.204184 23.8430641,23.7334039 21.4810749,21.3585363 C19.1210515,18.9856454 17.6585273,15.7105509 17.6585273,12.102092 C17.6585273,8.49378422 19.1210669,5.2187514 21.4811217,2.84589479 C23.843106,0.471098132 27.1033965,-0.999663831 30.6949926,-0.999663831 L35.2464186,-0.999663831 Z M3.55142596,-0.999663831 C7.14302208,-0.999663831 10.4033126,0.47109813 12.7652969,2.84589478 C15.1253517,5.21875139 16.5878913,8.49378421 16.5878913,12.102092 C16.5878913,15.7105509 15.1253671,18.9856454 12.7653437,21.3585363 C10.4033545,23.7334039 7.14304514,25.204184 3.55142596,25.204184 L-1,25.204184 L-1,-0.999663831 Z" id="path-1"></path>
        </g>
    </g>
</svg>