<?xml version="1.0" encoding="UTF-8"?>
<svg viewBox="0 0 143 60" version="1.1" xmlns="http://www.w3.org/2000/svg" xmlns:xlink="http://www.w3.org/1999/xlink">
    <title>assets/Extras.contrast-high</title>
    <g id="assets/Extras.contrast-high" stroke="none" stroke-width="1" fill="none" fill-rule="evenodd">
        <rect id="Rectangle" stroke="#000000" stroke-width="4" fill="#FFFFFF" fill-rule="nonzero" x="2" y="2" width="139" height="56" rx="12.6845333"></rect>
        <path d="M19,16 L19,43.915 L37.056,43.915 L37.056,39.007 L24.233,39.007 L24.233,32.098 L36.391,32.098 L36.391,27.225 L24.233,27.225 L24.233,20.91 L37.056,20.91 L37.056,16 L19,16 Z M61.0256,22.5551 L61.0256,17.5441 L66.2586,17.5441 L66.2586,22.5551 L70.4966,22.5551 L70.4966,27.1421 L66.2586,27.1421 L66.2586,37.0971 C66.2586,39.0771 66.8356,39.2931 68.0596,39.2931 C68.5926,39.2931 68.8746,39.2761 69.4036,39.2261 L70.4966,39.1241 L70.4966,43.7201 L69.6696,43.8661 C68.9186,43.9971 68.2866,44.0591 67.6826,44.0591 C63.1406,44.0591 61.0256,42.0981 61.0256,37.8871 L61.0256,27.1421 L57.9726,27.1421 L57.972,23.196 L51.1494,33.1136 L58.4904,43.9156 L52.3844,43.9156 L48.2134,37.2576 L44.0254,43.9156 L38.0744,43.9156 L45.3844,33.2386 L37.9914,22.5556 L44.1294,22.5556 L48.3184,29.1176 L52.4584,22.5556 L61.0256,22.5551 Z M78.2915,43.9155 L73.1665,43.9155 L73.1665,22.5555 L78.2915,22.5555 L78.2915,23.6795 C79.4155,22.7285 80.9435,22.2135 82.7505,22.2135 C83.4375,22.2135 84.1645,22.2985 84.4865,22.3545 L85.3125,22.5005 L85.3125,27.5555 L84.1475,27.3615 C83.4415,27.2435 82.9335,27.1955 82.3925,27.1955 C79.9385,27.1955 78.2915,28.6915 78.2915,30.9185 L78.2915,43.9155 Z M98.6333,35.0005 L94.5233,35.2575 C91.2223,35.4585 91.2223,36.7235 91.2223,37.4015 L91.2223,37.4385 C91.2223,38.9915 92.7283,39.5455 94.1373,39.5455 C96.7423,39.5455 98.6333,37.9265 98.6333,35.6955 L98.6333,35.0005 Z M93.4903,44.2575 C89.0953,44.2575 86.0253,41.4825 86.0253,37.5105 C86.0253,33.5145 88.9403,31.0685 94.0243,30.7655 L98.6333,30.4805 L98.6333,29.6615 C98.6333,28.4135 98.2523,26.9795 95.2863,26.9795 C94.2273,26.9795 92.3773,27.1995 91.8903,28.6665 L91.6623,29.3505 L90.9223,29.4045 L86.6103,29.4045 L86.8303,28.1265 C87.4243,24.5375 90.7853,22.2135 95.3943,22.2135 C100.6313,22.2135 103.7583,24.9985 103.7583,29.6615 L103.7583,43.9155 L98.6333,43.9155 L98.6333,42.4625 C97.2733,43.6325 95.5103,44.2575 93.4903,44.2575 L93.4903,44.2575 Z M115.1138,44.2573 C110.2948,44.2573 106.9088,41.8363 106.4868,38.0883 L106.3618,36.9773 L111.4068,36.9773 L111.6308,37.6703 C112.0418,38.9483 113.3178,39.6533 115.2218,39.6533 C117.2228,39.6533 118.6768,38.8123 118.6768,37.6533 C118.6768,37.2893 118.6768,36.4163 116.0648,35.7883 L113.0668,35.0693 C110.4798,34.4553 107.0378,33.1443 107.0378,28.8713 C107.0378,25.0683 110.5638,22.2143 115.2398,22.2143 C119.7808,22.2143 123.0388,24.5903 123.5408,28.2693 L123.6948,29.4043 L118.7128,29.4043 L118.5128,28.6653 C118.1998,27.5083 116.9688,26.8183 115.2218,26.8183 C113.4908,26.8183 112.2348,27.6133 112.2348,28.7103 C112.2348,29.1073 112.2348,29.8613 114.7228,30.4683 L117.7018,31.1853 C120.3508,31.8243 123.8728,33.1633 123.8728,37.3843 C123.8728,41.3823 120.1888,44.2573 115.1138,44.2573" id="Combined-Shape" fill="#000000"></path>
    </g>
</svg>