<?xml version="1.0" encoding="UTF-8"?>
<svg viewBox="0 0 135 52" version="1.1" xmlns="http://www.w3.org/2000/svg" xmlns:xlink="http://www.w3.org/1999/xlink">
    <title>assets/Extras_light</title>
    <g id="assets/Extras_light" stroke="none" stroke-width="1" fill="none" fill-rule="evenodd">
        <path d="M122.315467,0 C129.320941,-1.28688476e-15 135,5.67905902 135,12.6845333 L135,39.3154667 C135,46.320941 129.320941,52 122.315467,52 L12.6845333,52 C5.67905902,52 4.28961585e-16,46.320941 0,39.3154667 L0,12.6845333 C-8.5792317e-16,5.67905902 5.67905902,8.5792317e-16 12.6845333,0 L122.315467,0 Z M92.7346549,19.1046799 C88.6039388,19.1046799 85.6585586,21.1520784 85.1556888,24.1872568 L85.1377292,24.2950146 L88.2627057,24.2950146 L88.2806654,24.2411357 C88.7835351,22.7325263 90.3101042,21.8704638 92.6268971,21.8704638 C95.5183984,21.8704638 96.9731289,23.1635576 96.9731289,25.5521891 L96.9731289,27.3122333 L91.4236016,27.6534664 C86.9157331,27.9228609 84.3654648,29.9163805 84.3654648,33.3646305 L84.3654648,33.4005497 C84.3654648,36.9206383 87.1492083,39.1476331 90.8309336,39.1476331 C93.4350807,39.1476331 95.4645195,38.016176 96.6857747,35.950818 L96.9731289,35.950818 L96.9731289,38.8064 L100.098105,38.8064 L100.098105,25.5521891 C100.098105,21.5292307 97.4580391,19.1046799 92.7346549,19.1046799 Z M112.580052,19.1046799 C108.467296,19.1046799 105.378238,21.5292307 105.378238,24.7440055 L105.378238,24.7619651 C105.378238,27.5457086 107.012565,29.1261565 110.640411,29.988219 L113.639671,30.7066044 C116.028302,31.2813128 117.016082,32.1972542 117.016082,33.5083076 L117.016082,33.5442268 C117.016082,35.3042711 115.16624,36.5434859 112.562092,36.5434859 C110.083663,36.5434859 108.539134,35.4838674 108.018305,33.8675003 L104.82149,33.8675003 C105.180682,37.0643154 108.144022,39.1476331 112.454335,39.1476331 C116.854445,39.1476331 120.212897,36.7590016 120.212897,33.3107516 L120.212897,33.2748323 C120.212897,30.5090484 118.452853,28.9286005 114.807047,28.0485784 L111.825747,27.330193 C109.544874,26.7734443 108.575053,25.947301 108.575053,24.6362477 L108.575053,24.6003284 C108.575053,22.894163 110.263259,21.7088271 112.562092,21.7088271 C114.896845,21.7088271 116.405454,22.7684456 116.818526,24.2950146 L119.889624,24.2950146 C119.458592,21.1341188 116.63893,19.1046799 112.580052,19.1046799 Z M62.5983867,14.4351747 L59.3656523,14.4351747 L59.3656523,19.445913 L56.3125143,19.445913 L56.3125143,22.0321005 L59.3656523,22.0321005 L59.3656523,33.7777021 C59.3656523,37.477387 61.0358984,38.9500771 65.0229375,38.9500771 C65.6335651,38.9500771 66.2262331,38.8782385 66.8368607,38.7704807 L66.8368607,36.1124547 C66.2621523,36.1663336 65.9568385,36.1842932 65.4000898,36.1842932 C63.3886107,36.1842932 62.5983867,35.2683518 62.5983867,32.9874781 L62.5983867,22.0321005 L66.8368607,22.0321005 L66.8368607,19.445913 L62.5983867,19.445913 L62.5983867,14.4351747 Z M33.3960195,12.8906461 L17.3401055,12.8906461 L17.3401055,38.8064 L33.3960195,38.8064 L33.3960195,35.8969391 L20.5728398,35.8969391 L20.5728398,26.9889599 L32.731513,26.9889599 L32.731513,24.1154182 L20.5728398,24.1154182 L20.5728398,15.800107 L33.3960195,15.800107 L33.3960195,12.8906461 Z M40.9211068,19.445913 L37.2393815,19.445913 L43.9383255,29.1261565 L37.31122,38.8064 L40.813349,38.8064 L45.4110156,31.4968284 L45.6983698,31.4968284 L50.2780768,38.8064 L53.9418424,38.8064 L47.2788177,29.0004391 L53.8520443,19.445913 L50.3499154,19.445913 L45.8061276,26.6477268 L45.5187734,26.6477268 L40.9211068,19.445913 Z M80.0910716,19.1046799 C77.4689648,19.1046799 75.6550417,20.2900159 74.9186966,22.3194547 L74.6313424,22.3194547 L74.6313424,19.445913 L71.5063659,19.445913 L71.5063659,38.8064 L74.6313424,38.8064 L74.6313424,26.8093635 C74.6313424,23.9717411 76.7505794,22.0859794 79.7318789,22.0859794 C80.414345,22.0859794 81.007013,22.157818 81.6535599,22.2655758 L81.6535599,19.2303974 C81.3482461,19.1765185 80.6837396,19.1046799 80.0910716,19.1046799 Z M96.9731289,29.8265823 L96.9731289,31.5866266 C96.9731289,34.3524104 94.6563359,36.4357281 91.4774805,36.4357281 C89.232526,36.4357281 87.5622799,35.2863115 87.5622799,33.3287112 L87.5622799,33.2927919 C87.5622799,31.3711109 88.8553737,30.3294521 91.8007539,30.1498557 L96.9731289,29.8265823 Z" id="Combined-Shape" fill="#000000" fill-rule="nonzero"></path>
    </g>
</svg>