<?xml version="1.0" encoding="UTF-8"?>
<svg viewBox="0 0 172 60" version="1.1" xmlns="http://www.w3.org/2000/svg" xmlns:xlink="http://www.w3.org/1999/xlink">
    <title>assets/hd-sd.contrast-high</title>
    <g id="assets/hd-sd.contrast-high" stroke="none" stroke-width="1" fill="none" fill-rule="evenodd">
        <g id="hd-sd.theme-dark" transform="translate(4.000000, 4.000000)" fill-rule="nonzero">
            <path d="M148.616689,-2 C154.532196,-2 156.649193,-1.31337918 158.804272,-0.160830264 C161.11352,1.07416894 162.92583,2.88648 164.160831,5.19572845 C165.313379,7.35080779 166,9.46780462 166,15.3833112 L166,36.6166888 C166,42.5321954 165.313379,44.6491923 164.16083,46.8042722 C162.925831,49.11352 161.11352,50.925831 158.804272,52.1608301 C156.649193,53.3133792 154.532196,54 148.616689,54 L15.3833112,54 C9.46780438,54 7.35080751,53.3133792 5.19572803,52.1608302 C2.88648023,50.9258309 1.07416906,49.1135198 -0.160830166,46.8042719 C-1.31337925,44.6491926 -2,42.5321957 -2,36.6166888 L-2,15.3833112 C-2,9.46780436 -1.31337926,7.35080748 -0.160830175,5.19572806 C1.07416907,2.88648025 2.88648025,1.07416907 5.19572806,-0.160830176 C7.35080748,-1.31337926 9.46780436,-2 15.3833112,-2 Z" id="Combined-Shape-path" stroke="#000000" stroke-width="4" fill="#FFFFFF"></path>
            <path d="M148.616689,0 C153.965801,0 155.905519,0.556953667 157.861074,1.60279622 C159.81663,2.64863878 161.351361,4.18337022 162.397204,6.13892578 C163.443046,8.09448133 164,10.0341988 164,15.3833112 L164,36.6166888 C164,41.9658012 163.443046,43.9055187 162.397204,45.8610742 C161.351361,47.8166298 159.81663,49.3513612 157.861074,50.3972038 C155.905519,51.4430463 153.965801,52 148.616689,52 L15.3833112,52 C10.0341988,52 8.09448133,51.4430463 6.13892578,50.3972038 C4.18337022,49.3513612 2.64863878,47.8166298 1.60279622,45.8610742 C0.556953667,43.9055187 0,41.9658012 0,36.6166888 L0,15.3833112 C0,10.0341988 0.556953667,8.09448133 1.60279622,6.13892578 C2.64863878,4.18337022 4.18337022,2.64863878 6.13892578,1.60279622 C8.09448133,0.556953667 10.0341988,0 15.3833112,0 L148.616689,0 Z M104.64325,11.328125 C98.3737187,11.328125 93.8815312,14.7460938 93.8815312,19.9023438 C93.8815312,24.1015625 96.6354375,26.796875 102.260437,27.9101562 L105.229187,28.4960938 C108.764344,29.21875 110.092469,30.2734375 110.092469,32.1289062 C110.092469,34.1992188 107.944031,35.7226562 104.7995,35.7226562 C101.596375,35.7226562 99.2135625,34.3164062 98.8424687,31.953125 L93.2760625,31.953125 C93.4518437,37.265625 97.9245,40.46875 104.64325,40.46875 C111.694031,40.46875 116.010437,36.9921875 116.010437,31.484375 C116.010437,27.2070312 113.412781,24.8046875 107.45575,23.6132812 L104.467469,23.0078125 C101.147156,22.34375 99.7799687,21.2695312 99.7799687,19.53125 C99.7799687,17.4609375 101.733094,16.09375 104.64325,16.09375 C107.612,16.09375 109.701844,17.5390625 109.897156,19.9414062 L115.463562,19.9414062 C115.365906,14.765625 111.225281,11.328125 104.64325,11.328125 Z M25.8984375,11.8164062 L20,11.8164062 L20,40 L25.8984375,40 L25.8984375,28.125 L38.59375,28.125 L38.59375,40 L44.4921875,40 L44.4921875,11.8164062 L38.59375,11.8164062 L38.59375,23.2617188 L25.8984375,23.2617188 L25.8984375,11.8164062 Z M59.7704062,11.8164062 L49.0086875,11.8164062 L49.0086875,40 L59.7704062,40 C68.2274375,40 73.2079062,34.7460938 73.2079062,25.8007813 C73.2079062,16.8554688 68.2274375,11.8164062 59.7704062,11.8164062 Z M130.194906,11.8164062 L119.433187,11.8164062 L119.433187,40 L130.194906,40 C138.651937,40 143.632406,34.7460938 143.632406,25.8007813 C143.632406,16.8554688 138.651937,11.8164062 130.194906,11.8164062 Z M59.0672812,16.6796875 C64.2625937,16.6796875 67.1922812,19.921875 67.1922812,25.8203125 C67.1922812,31.9140625 64.3407187,35.1171875 59.0672812,35.1171875 L54.907125,35.1171875 L54.907125,16.6796875 L59.0672812,16.6796875 Z M129.491781,16.6796875 C134.687094,16.6796875 137.616781,19.921875 137.616781,25.8203125 C137.616781,31.9140625 134.765219,35.1171875 129.491781,35.1171875 L125.331625,35.1171875 L125.331625,16.6796875 L129.491781,16.6796875 Z M89.7556562,26.0546875 L76.923625,26.0546875 L76.923625,31.0351563 L89.7556562,31.0351563 L89.7556562,26.0546875 Z" id="Combined-Shape" fill="#FFFFFF"></path>
            <path d="M104.64325,11.328125 C98.3737187,11.328125 93.8815312,14.7460938 93.8815312,19.9023438 C93.8815312,24.1015625 96.6354375,26.796875 102.260437,27.9101562 L105.229187,28.4960938 C108.764344,29.21875 110.092469,30.2734375 110.092469,32.1289062 C110.092469,34.1992188 107.944031,35.7226562 104.7995,35.7226562 C101.596375,35.7226562 99.2135625,34.3164062 98.8424687,31.953125 L93.2760625,31.953125 C93.4518437,37.265625 97.9245,40.46875 104.64325,40.46875 C111.694031,40.46875 116.010437,36.9921875 116.010437,31.484375 C116.010437,27.2070312 113.412781,24.8046875 107.45575,23.6132812 L104.467469,23.0078125 C101.147156,22.34375 99.7799687,21.2695312 99.7799687,19.53125 C99.7799687,17.4609375 101.733094,16.09375 104.64325,16.09375 C107.612,16.09375 109.701844,17.5390625 109.897156,19.9414062 L115.463562,19.9414062 C115.365906,14.765625 111.225281,11.328125 104.64325,11.328125 Z" id="Combined-Shape-path" fill="#000000"></path>
            <polygon id="Combined-Shape-path" fill="#000000" points="25.8984375 11.8164062 20 11.8164062 20 40 25.8984375 40 25.8984375 28.125 38.59375 28.125 38.59375 40 44.4921875 40 44.4921875 11.8164062 38.59375 11.8164062 38.59375 23.2617188 25.8984375 23.2617188"></polygon>
            <path d="M59.7704062,11.8164062 C68.2274375,11.8164062 73.2079062,16.8554688 73.2079062,25.8007813 C73.2079062,34.7460938 68.2274375,40 59.7704062,40 L49.0086875,40 L49.0086875,11.8164062 Z M59.0672812,16.6796875 L54.907125,16.6796875 L54.907125,35.1171875 L59.0672812,35.1171875 C64.3407187,35.1171875 67.1922812,31.9140625 67.1922812,25.8203125 C67.1922812,19.921875 64.2625937,16.6796875 59.0672812,16.6796875 Z" id="Combined-Shape" fill="#000000"></path>
            <path d="M130.194906,11.8164062 C138.651937,11.8164062 143.632406,16.8554688 143.632406,25.8007813 C143.632406,34.7460938 138.651937,40 130.194906,40 L119.433187,40 L119.433187,11.8164062 Z M129.491781,16.6796875 L125.331625,16.6796875 L125.331625,35.1171875 L129.491781,35.1171875 C134.765219,35.1171875 137.616781,31.9140625 137.616781,25.8203125 C137.616781,19.921875 134.687094,16.6796875 129.491781,16.6796875 Z" id="Combined-Shape" fill="#000000"></path>
            <polygon id="Combined-Shape-path" fill="#000000" points="89.7556562 26.0546875 76.923625 26.0546875 76.923625 31.0351563 89.7556562 31.0351563"></polygon>
        </g>
    </g>
</svg>