<?xml version="1.0" encoding="UTF-8"?>
<svg viewBox="0 0 100 60" version="1.1" xmlns="http://www.w3.org/2000/svg" xmlns:xlink="http://www.w3.org/1999/xlink">
    <title>assets/hd.contrast-high</title>
    <g id="assets/hd.contrast-high" stroke="none" stroke-width="1" fill="none" fill-rule="evenodd">
        <g id="hd.theme-dark" transform="translate(4.000000, 4.000000)" fill-rule="nonzero">
            <path d="M76.6166888,-2 C82.5321957,-2 84.6491926,-1.31337925 86.8042719,-0.160830183 C89.1135198,1.07416906 90.9258309,2.88648023 92.1608302,5.1957281 C93.3133792,7.35080751 94,9.46780438 94,15.3833112 L94,36.6166888 C94,42.5321956 93.3133792,44.6491925 92.1608302,46.8042719 C90.9258309,49.1135198 89.1135198,50.9258309 86.8042719,52.1608302 C84.6491925,53.3133792 82.5321956,54 76.6166888,54 L15.3833112,54 C9.46780438,54 7.35080751,53.3133792 5.19572803,52.1608302 C2.88648023,50.9258309 1.07416906,49.1135198 -0.160830166,46.8042719 C-1.31337925,44.6491926 -2,42.5321957 -2,36.6166888 L-2,15.3833112 C-2,9.46780436 -1.31337926,7.35080748 -0.160830175,5.19572806 C1.07416907,2.88648025 2.88648025,1.07416907 5.19572806,-0.160830176 C7.35080748,-1.31337926 9.46780436,-2 15.3833112,-2 L76.6166888,-2 Z" id="HD-path" stroke="#000000" stroke-width="4" fill="#FFFFFF"></path>
            <path d="M76.6166888,0 C81.9658012,0 83.9055187,0.556953667 85.8610742,1.60279622 C87.8166298,2.64863878 89.3513612,4.18337022 90.3972038,6.13892578 C91.4430463,8.09448133 92,10.0341988 92,15.3833112 L92,36.6166888 C92,41.9658012 91.4430463,43.9055187 90.3972038,45.8610742 C89.3513612,47.8166298 87.8166298,49.3513612 85.8610742,50.3972038 C83.9055187,51.4430463 81.9658012,52 76.6166888,52 L15.3833112,52 C10.0341988,52 8.09448133,51.4430463 6.13892578,50.3972038 C4.18337022,49.3513612 2.64863878,47.8166298 1.60279622,45.8610742 C0.556953667,43.9055187 0,41.9658012 0,36.6166888 L0,15.3833112 C0,10.0341988 0.556953667,8.09448133 1.60279622,6.13892578 C2.64863878,4.18337022 4.18337022,2.64863878 6.13892578,1.60279622 C8.09448133,0.556953667 10.0341988,0 15.3833112,0 L76.6166888,0 Z M38.5896875,11.8164062 L38.5896875,23.2617188 L25.894375,23.2617188 L25.894375,11.8164062 L19.9959375,11.8164062 L19.9959375,40 L25.894375,40 L25.894375,28.125 L38.5896875,28.125 L38.5896875,40 L44.488125,40 L44.488125,11.8164062 L38.5896875,11.8164062 Z M59.75,40 C68.2070312,40 73.1875,34.7460938 73.1875,25.8007812 C73.1875,16.8554688 68.2070312,11.8164062 59.75,11.8164062 L48.890625,11.8164062 L48.890625,40 Z M59.046875,16.6796875 C64.2421875,16.6796875 67.171875,19.921875 67.171875,25.8203125 C67.171875,31.9140625 64.3203125,35.1171875 59.046875,35.1171875 L54.7890625,35.1171875 L54.7890625,16.6796875 Z" id="Combined-Shape" fill="#FFFFFF"></path>
            <path d="M44.488125,40 L44.488125,11.8164062 L38.5896875,11.8164062 L38.5896875,23.2617188 L25.894375,23.2617188 L25.894375,11.8164062 L19.9959375,11.8164062 L19.9959375,40 L25.894375,40 L25.894375,28.125 L38.5896875,28.125 L38.5896875,40 L44.488125,40 Z M48.890625,11.8164062 L59.75,11.8164062 C68.2070312,11.8164062 73.1875,16.8554688 73.1875,25.8007812 C73.1875,34.7460938 68.2070312,40 59.75,40 L48.890625,40 L48.890625,11.8164062 Z M54.7890625,16.6796875 L54.7890625,35.1171875 L59.046875,35.1171875 C64.3203125,35.1171875 67.171875,31.9140625 67.171875,25.8203125 C67.171875,19.921875 64.2421875,16.6796875 59.046875,16.6796875 L54.7890625,16.6796875 Z" id="HD" fill="#000000"></path>
        </g>
    </g>
</svg>