<?xml version="1.0" encoding="UTF-8"?>
<svg viewBox="0 0 128 60" version="1.1" xmlns="http://www.w3.org/2000/svg" xmlns:xlink="http://www.w3.org/1999/xlink">
    <title>assets/hdr.contrast-high</title>
    <g id="assets/hdr.contrast-high" stroke="none" stroke-width="1" fill="none" fill-rule="evenodd">
        <g id="hdr.theme-dark" transform="translate(4.000000, 4.000000)" fill-rule="nonzero">
            <path d="M104.616689,-2 C110.532196,-2 112.649193,-1.31337918 114.804272,-0.160830264 C117.11352,1.07416894 118.92583,2.88648 120.160831,5.19572845 C121.313379,7.35080779 122,9.46780462 122,15.3833112 L122,36.6166888 C122,42.5321954 121.313379,44.6491923 120.16083,46.8042722 C118.925831,49.11352 117.11352,50.925831 114.804272,52.1608301 C112.649193,53.3133792 110.532196,54 104.616689,54 L15.3833112,54 C9.46780438,54 7.35080751,53.3133792 5.19572803,52.1608302 C2.88648023,50.9258309 1.07416906,49.1135198 -0.160830166,46.8042719 C-1.31337925,44.6491926 -2,42.5321957 -2,36.6166888 L-2,15.3833112 C-2,9.46780436 -1.31337926,7.35080748 -0.160830175,5.19572806 C1.07416907,2.88648025 2.88648025,1.07416907 5.19572806,-0.160830176 C7.35080748,-1.31337926 9.46780436,-2 15.3833112,-2 Z" id="HDR-path" stroke="#000000" stroke-width="4" fill="#FFFFFF"></path>
            <path d="M104.616689,0 C109.965801,0 111.905519,0.556953667 113.861074,1.60279622 C115.81663,2.64863878 117.351361,4.18337022 118.397204,6.13892578 C119.443046,8.09448133 120,10.0341988 120,15.3833112 L120,36.6166888 C120,41.9658012 119.443046,43.9055187 118.397204,45.8610742 C117.351361,47.8166298 115.81663,49.3513612 113.861074,50.3972038 C111.905519,51.4430463 109.965801,52 104.616689,52 L15.3833112,52 C10.0341988,52 8.09448133,51.4430463 6.13892578,50.3972038 C4.18337022,49.3513612 2.64863878,47.8166298 1.60279622,45.8610742 C0.556953667,43.9055187 0,41.9658012 0,36.6166888 L0,15.3833112 C0,10.0341988 0.556953667,8.09448133 1.60279622,6.13892578 C2.64863878,4.18337022 4.18337022,2.64863878 6.13892578,1.60279622 C8.09448133,0.556953667 10.0341988,0 15.3833112,0 L104.616689,0 Z M25.1853125,11.8164062 L19.286875,11.8164062 L19.286875,40 L25.1853125,40 L25.1853125,28.125 L37.880625,28.125 L37.880625,40 L43.7790625,40 L43.7790625,11.8164062 L37.880625,11.8164062 L37.880625,23.2617188 L25.1853125,23.2617188 L25.1853125,11.8164062 Z M59.0409375,11.8164062 L48.1815625,11.8164062 L48.1815625,40 L59.0409375,40 C67.4979687,40 72.4784375,34.7460938 72.4784375,25.8007812 C72.4784375,16.8554688 67.4979687,11.8164062 59.0409375,11.8164062 Z M87.623125,11.8164062 L75.9825,11.8164062 L75.9825,40 L81.8809375,40 L81.8809375,29.6875 L86.7051563,29.6875 L91.9590625,40 L98.63875,40 L92.70125,28.8085938 C95.9434375,27.5390625 97.8184375,24.4140625 97.8184375,20.8007812 C97.8184375,15.234375 94.1075,11.8164062 87.623125,11.8164062 Z M58.3378125,16.6796875 C63.533125,16.6796875 66.4628125,19.921875 66.4628125,25.8203125 C66.4628125,31.9140625 63.61125,35.1171875 58.3378125,35.1171875 L54.08,35.1171875 L54.08,16.6796875 Z M86.998125,16.4257812 C89.9278125,16.4257812 91.76375,18.1835938 91.76375,20.9179688 C91.76375,23.7109375 90.0254688,25.4101562 87.0567188,25.4101562 L81.8809375,25.4101562 L81.8809375,16.4257812 Z" id="Combined-Shape" fill="#FFFFFF"></path>
            <path d="M43.7790625,40 L43.7790625,11.8164062 L37.880625,11.8164062 L37.880625,23.2617188 L25.1853125,23.2617188 L25.1853125,11.8164062 L19.286875,11.8164062 L19.286875,40 L25.1853125,40 L25.1853125,28.125 L37.880625,28.125 L37.880625,40 L43.7790625,40 Z M48.1815625,11.8164062 L59.0409375,11.8164062 C67.4979687,11.8164062 72.4784375,16.8554688 72.4784375,25.8007812 C72.4784375,34.7460938 67.4979687,40 59.0409375,40 L48.1815625,40 L48.1815625,11.8164062 Z M54.08,16.6796875 L54.08,35.1171875 L58.3378125,35.1171875 C63.61125,35.1171875 66.4628125,31.9140625 66.4628125,25.8203125 C66.4628125,19.921875 63.533125,16.6796875 58.3378125,16.6796875 L54.08,16.6796875 Z M81.8809375,16.4257812 L81.8809375,25.4101562 L87.0567188,25.4101562 C90.0254688,25.4101562 91.76375,23.7109375 91.76375,20.9179688 C91.76375,18.1835938 89.9278125,16.4257812 86.998125,16.4257812 L81.8809375,16.4257812 Z M81.8809375,29.6875 L81.8809375,40 L75.9825,40 L75.9825,11.8164062 L87.623125,11.8164062 C94.1075,11.8164062 97.8184375,15.234375 97.8184375,20.8007812 C97.8184375,24.4140625 95.9434375,27.5390625 92.70125,28.8085938 L98.63875,40 L91.9590625,40 L86.7051563,29.6875 L81.8809375,29.6875 Z" id="HDR" fill="#000000"></path>
        </g>
    </g>
</svg>