<?xml version="1.0" encoding="UTF-8"?>
<svg viewBox="0 0 265 60" version="1.1" xmlns="http://www.w3.org/2000/svg" xmlns:xlink="http://www.w3.org/1999/xlink">
    <title>assets/iTunesExtra.contrast-high</title>
    <g id="assets/iTunesExtra.contrast-high" stroke="none" stroke-width="1" fill="none" fill-rule="evenodd">
        <g id="iTunes-Extras-Long-Badge" transform="translate(4.000000, 4.000000)">
            <rect id="Rectangle" stroke="#000000" stroke-width="4" fill="#FFFFFF" fill-rule="nonzero" x="-2" y="-2" width="261" height="56" rx="12.6845333"></rect>
            <path d="M18.855,16.811 C17.115,16.811 15.7,15.395 15.7,13.656 C15.7,11.916 17.115,10.5 18.855,10.5 C20.595,10.5 22.01,11.916 22.01,13.656 C22.01,15.395 20.595,16.811 18.855,16.811 L18.855,16.811 Z M92.922,26.628 L101.305,26.628 C100.933,24.853 99.891,22.989 97.159,22.989 C94.982,22.989 93.462,24.307 92.922,26.628 L92.922,26.628 Z M219.111,30.992 L215.001,31.249 C211.7,31.45 211.7,32.763 211.7,33.394 C211.7,34.729 212.817,35.536 214.615,35.536 C217.22,35.536 219.111,33.917 219.111,31.687 L219.111,30.992 Z M16.274,39.907 L21.399,39.907 L21.399,18.546 L16.274,18.546 L16.274,39.907 Z M37.294,39.907 L32.061,39.907 L32.061,16.901 L23.71,16.901 L23.71,11.991 L45.645,11.991 L45.645,16.901 L37.294,16.901 L37.294,39.907 Z M84.833,39.907 L79.708,39.907 L79.708,27.125 C79.708,24.175 78.687,22.971 76.182,22.971 C73.61,22.971 72.136,24.603 72.136,27.449 L72.136,39.907 L67.011,39.907 L67.011,18.546 L72.136,18.546 L72.136,19.84 C73.373,18.754 75.024,18.206 77.063,18.206 C81.928,18.206 84.833,21.258 84.833,26.371 L84.833,39.907 Z M157.534,39.907 L139.478,39.907 L139.478,11.991 L157.534,11.991 L157.534,16.901 L144.71,16.901 L144.71,23.216 L156.869,23.216 L156.869,28.09 L144.71,28.09 L144.71,34.998 L157.534,34.998 L157.534,39.907 Z M198.769,39.907 L193.644,39.907 L193.644,18.546 L198.769,18.546 L198.769,19.679 C199.904,18.721 201.444,18.206 203.229,18.206 C203.966,18.206 204.687,18.297 204.964,18.346 L205.792,18.492 L205.792,23.547 L204.627,23.353 C204.111,23.266 203.541,23.186 202.87,23.186 C200.378,23.186 198.769,24.648 198.769,26.91 L198.769,39.907 Z M188.161,40.051 C183.556,40.051 181.503,38.147 181.503,33.878 L181.503,23.133 L178.45,23.133 L178.45,19.189 L171.627,29.105 L178.968,39.907 L172.863,39.907 L168.691,33.249 L164.503,39.907 L158.552,39.907 L165.861,29.229 L158.469,18.546 L164.608,18.546 L168.796,25.108 L172.937,18.546 L181.503,18.546 L181.503,13.536 L186.736,13.536 L186.736,18.546 L190.974,18.546 L190.974,23.133 L186.736,23.133 L186.736,33.088 C186.736,34.953 187.208,35.285 188.538,35.285 C189.069,35.285 189.351,35.267 189.88,35.217 L190.974,35.114 L190.974,39.71 L190.148,39.855 C189.396,39.989 188.764,40.051 188.161,40.051 L188.161,40.051 Z M53.032,40.248 C48.162,40.248 45.369,37.272 45.369,32.082 L45.369,18.546 L50.494,18.546 L50.494,31.328 C50.494,34.356 51.401,35.482 53.84,35.482 C56.605,35.482 58.067,33.934 58.067,31.005 L58.067,18.546 L63.192,18.546 L63.192,39.907 L58.067,39.907 L58.067,38.608 C56.808,39.686 55.093,40.248 53.032,40.248 L53.032,40.248 Z M97.375,40.248 C91.285,40.248 87.502,36.053 87.502,29.299 C87.502,22.664 91.391,18.206 97.177,18.206 C102.923,18.206 106.636,22.405 106.636,28.903 L106.636,31.125 L92.778,31.125 C93.158,33.892 94.836,35.464 97.446,35.464 C99.533,35.464 100.902,34.524 101.293,33.651 L101.629,32.896 L106.681,32.896 L106.337,34.281 C105.584,37.252 102.522,40.248 97.375,40.248 L97.375,40.248 Z M117.13,40.248 C112.311,40.248 108.924,37.827 108.503,34.08 L108.379,32.968 L113.423,32.968 L113.647,33.662 C114.058,34.94 115.334,35.644 117.238,35.644 C119.272,35.644 120.692,34.822 120.692,33.645 C120.692,33.243 120.692,32.408 118.082,31.78 L115.084,31.061 C110.97,30.083 109.054,28.114 109.054,24.863 C109.054,21.067 112.58,18.206 117.256,18.206 C121.796,18.206 125.054,20.582 125.557,24.26 L125.711,25.395 L120.729,25.395 L120.529,24.657 C120.216,23.5 118.986,22.81 117.238,22.81 C115.507,22.81 114.251,23.605 114.251,24.701 C114.251,25.103 114.251,25.853 116.739,26.459 L119.717,27.178 C123.87,28.179 125.889,30.207 125.889,33.375 C125.889,37.358 122.205,40.248 117.13,40.248 L117.13,40.248 Z M213.968,40.248 C209.573,40.248 206.503,37.474 206.503,33.501 C206.503,29.459 209.343,27.064 214.501,26.756 L219.111,26.473 L219.111,25.653 C219.111,24.404 218.73,22.971 215.764,22.971 C214.706,22.971 212.856,23.19 212.368,24.658 L212.155,25.293 L211.47,25.391 L207.087,25.395 L207.307,24.118 C207.903,20.528 211.265,18.206 215.873,18.206 C221.109,18.206 224.236,20.99 224.236,25.653 L224.236,39.907 L219.111,39.907 L219.111,38.454 C217.745,39.632 215.991,40.248 213.968,40.248 L213.968,40.248 Z M235.592,40.248 C230.772,40.248 227.385,37.827 226.965,34.08 L226.84,32.968 L231.884,32.968 L232.107,33.662 C232.519,34.94 233.795,35.644 235.7,35.644 C237.734,35.644 239.154,34.822 239.154,33.645 C239.154,33.243 239.154,32.407 236.542,31.78 L233.545,31.061 C229.432,30.084 227.516,28.114 227.516,24.863 C227.516,21.067 231.042,18.206 235.717,18.206 C240.259,18.206 243.517,20.582 244.017,24.261 L244.171,25.395 L239.191,25.395 L238.992,24.657 C238.678,23.5 237.448,22.81 235.7,22.81 C233.969,22.81 232.712,23.605 232.712,24.701 C232.712,25.103 232.712,25.853 235.2,26.459 L238.179,27.178 C242.332,28.179 244.35,30.207 244.35,33.375 C244.35,37.358 240.667,40.248 235.592,40.248 L235.592,40.248 Z" id="Fill-4" fill="#000000"></path>
        </g>
    </g>
</svg>