<?xml version="1.0" encoding="UTF-8"?>
<svg viewBox="0 0 257 52" version="1.1" xmlns="http://www.w3.org/2000/svg" xmlns:xlink="http://www.w3.org/1999/xlink">
    <title>assets/iTunesExtra_light</title>
    <g id="assets/iTunesExtra_light" stroke="none" stroke-width="1" fill="none" fill-rule="evenodd">
        <g id="iTunes-Extras-Long-Badge" fill="#000000" fill-rule="nonzero">
            <path d="M244.315467,0 C251.320941,-1.28688476e-15 257,5.67905902 257,12.6845333 L257,39.3154667 C257,46.320941 251.320941,52 244.315467,52 L12.6845333,52 C5.67905901,52 7.96335053e-15,46.320941 0,39.3154667 L0,12.6845333 C-8.5792317e-16,5.67905902 5.67905902,8.5792317e-16 12.6845333,0 L244.315467,0 Z M49.4939,19.445913 L46.3689234,19.445913 L46.3689234,31.9817385 C46.3689234,36.5614456 48.6318375,39.1476331 53.0319481,39.1476331 C55.8695705,39.1476331 57.8271708,37.9802568 58.7790315,35.9148987 L59.0663856,35.9148987 L59.0663856,38.8064 L62.1913622,38.8064 L62.1913622,19.445913 L59.0663856,19.445913 L59.0663856,30.9041604 C59.0663856,34.2985315 57.2524625,36.3818492 53.8401317,36.3818492 C50.7510744,36.3818492 49.4939,34.7116031 49.4939,31.2274339 L49.4939,19.445913 Z M235.71736,19.1046799 C231.604603,19.1046799 228.515546,21.5292307 228.515546,24.7440055 L228.515546,24.7619651 C228.515546,27.5457086 230.149873,29.1261565 233.777719,29.988219 L236.776978,30.7066044 C239.16561,31.2813128 240.15339,32.1972542 240.15339,33.5083076 L240.15339,33.5442268 C240.15339,35.3042711 238.303547,36.5434859 235.6994,36.5434859 C233.22097,36.5434859 231.676442,35.4838674 231.155612,33.8675003 L227.958797,33.8675003 C228.31799,37.0643154 231.28133,39.1476331 235.591642,39.1476331 C239.991753,39.1476331 243.350205,36.7590016 243.350205,33.3107516 L243.350205,33.2748323 C243.350205,30.5090484 241.59016,28.9286005 237.944354,28.0485784 L234.963055,27.330193 C232.682181,26.7734443 231.712361,25.947301 231.712361,24.6362477 L231.712361,24.6003284 C231.712361,22.894163 233.400567,21.7088271 235.6994,21.7088271 C238.034153,21.7088271 239.542762,22.7684456 239.955834,24.2950146 L243.026931,24.2950146 C242.5959,21.1341187 239.776237,19.1046799 235.71736,19.1046799 Z M97.176732,19.1046799 C91.9145588,19.1046799 88.5022281,23.1994768 88.5022281,29.1800354 L88.5022281,29.1979951 C88.5022281,35.2683518 91.8427203,39.1476331 97.374288,39.1476331 C101.936035,39.1476331 104.701819,36.5614456 105.366326,33.9393388 L105.402245,33.7956617 L102.277268,33.7956617 L102.20543,33.9572984 C101.6846,35.1246747 100.068233,36.3638896 97.4461265,36.3638896 C93.9978765,36.3638896 91.7888414,34.029137 91.6990432,30.0241383 L105.63572,30.0241383 L105.63572,28.8028831 C105.63572,23.0198805 102.438905,19.1046799 97.176732,19.1046799 Z M117.255604,19.1046799 C113.142848,19.1046799 110.053791,21.5292307 110.053791,24.7440055 L110.053791,24.7619651 C110.053791,27.5457086 111.688117,29.1261565 115.315964,29.988219 L118.315223,30.7066044 C120.703854,31.2813128 121.691634,32.1972542 121.691634,33.5083076 L121.691634,33.5442268 C121.691634,35.3042711 119.841792,36.5434859 117.237645,36.5434859 C114.759215,36.5434859 113.214686,35.4838674 112.693857,33.8675003 L109.497042,33.8675003 C109.856235,37.0643154 112.819574,39.1476331 117.129887,39.1476331 C121.529998,39.1476331 124.888449,36.7590016 124.888449,33.3107516 L124.888449,33.2748323 C124.888449,30.5090484 123.128405,28.9286005 119.482599,28.0485784 L116.5013,27.330193 C114.220426,26.7734443 113.250606,25.947301 113.250606,24.6362477 L113.250606,24.6003284 C113.250606,22.894163 114.938811,21.7088271 117.237645,21.7088271 C119.572397,21.7088271 121.081007,22.7684456 121.494078,24.2950146 L124.565176,24.2950146 C124.134145,21.1341187 121.314482,19.1046799 117.255604,19.1046799 Z M215.871962,19.1046799 C211.741246,19.1046799 208.795866,21.1520784 208.292996,24.1872568 L208.275037,24.2950146 L211.400013,24.2950146 L211.417973,24.2411357 C211.920843,22.7325263 213.447412,21.8704638 215.764205,21.8704638 C218.655706,21.8704638 220.110436,23.1635576 220.110436,25.5521891 L220.110436,27.3122333 L214.560909,27.6534664 C210.053041,27.9228609 207.502772,29.9163805 207.502772,33.3646305 L207.502772,33.4005497 C207.502772,36.9206383 210.286516,39.1476331 213.968241,39.1476331 C216.572388,39.1476331 218.601827,38.016176 219.823082,35.950818 L220.110436,35.950818 L220.110436,38.8064 L223.235413,38.8064 L223.235413,25.5521891 C223.235413,21.5292307 220.595347,19.1046799 215.871962,19.1046799 Z M185.735694,14.4351747 L182.50296,14.4351747 L182.50296,19.445913 L179.449822,19.445913 L179.449822,22.0321005 L182.50296,22.0321005 L182.50296,33.7777021 C182.50296,37.477387 184.173206,38.9500771 188.160245,38.9500771 C188.770873,38.9500771 189.363541,38.8782385 189.974168,38.7704807 L189.974168,36.1124547 C189.39946,36.1663336 189.094146,36.1842932 188.537397,36.1842932 C186.525918,36.1842932 185.735694,35.2683518 185.735694,32.9874781 L185.735694,22.0321005 L189.974168,22.0321005 L189.974168,19.445913 L185.735694,19.445913 L185.735694,14.4351747 Z M77.0619403,19.1046799 C74.2063583,19.1046799 72.3924351,20.3079755 71.4226148,22.355374 L71.1352606,22.355374 L71.1352606,19.445913 L68.0102841,19.445913 L68.0102841,38.8064 L71.1352606,38.8064 L71.1352606,27.3481526 C71.1352606,23.9537815 73.0928609,21.8704638 76.1819182,21.8704638 C79.2709755,21.8704638 80.7077463,23.5407099 80.7077463,27.0248792 L80.7077463,38.8064 L83.8327229,38.8064 L83.8327229,26.2705745 C83.8327229,21.6729078 81.4081721,19.1046799 77.0619403,19.1046799 Z M156.533327,12.8906461 L140.477413,12.8906461 L140.477413,38.8064 L156.533327,38.8064 L156.533327,35.8969391 L143.710147,35.8969391 L143.710147,26.9889599 L155.868821,26.9889599 L155.868821,24.1154182 L143.710147,24.1154182 L143.710147,15.800107 L156.533327,15.800107 L156.533327,12.8906461 Z M164.058414,19.445913 L160.376689,19.445913 L167.075633,29.1261565 L160.448528,38.8064 L163.950656,38.8064 L168.548323,31.4968284 L168.835677,31.4968284 L173.415384,38.8064 L177.07915,38.8064 L170.416125,29.0004391 L176.989352,19.445913 L173.487223,19.445913 L168.943435,26.6477268 L168.656081,26.6477268 L164.058414,19.445913 Z M44.6447984,12.8906461 L24.7096031,12.8906461 L24.7096031,15.800107 L33.0608336,15.800107 L33.0608336,38.8064 L36.2935679,38.8064 L36.2935679,15.800107 L44.6447984,15.800107 L44.6447984,12.8906461 Z M203.228379,19.1046799 C200.606272,19.1046799 198.792349,20.2900159 198.056004,22.3194547 L197.76865,22.3194547 L197.76865,19.445913 L194.643673,19.445913 L194.643673,38.8064 L197.76865,38.8064 L197.76865,26.8093635 C197.76865,23.9717411 199.887887,22.0859794 202.869186,22.0859794 C203.551653,22.0859794 204.144321,22.157818 204.790867,22.2655758 L204.790867,19.2303974 C204.485554,19.1765185 203.821047,19.1046799 203.228379,19.1046799 Z M20.3992906,19.445913 L17.274314,19.445913 L17.274314,38.8064 L20.3992906,38.8064 L20.3992906,19.445913 Z M220.110436,29.8265823 L220.110436,31.5866266 C220.110436,34.3524104 217.793643,36.4357281 214.614788,36.4357281 C212.369834,36.4357281 210.699587,35.2863115 210.699587,33.3287112 L210.699587,33.2927919 C210.699587,31.3711109 211.992681,30.3294521 214.938061,30.1498557 L220.110436,29.8265823 Z M97.1587724,21.8884234 C100.014354,21.8884234 102.133591,23.7023466 102.456865,27.527749 L91.7529221,27.527749 C92.0941552,23.8460237 94.2852307,21.8884234 97.1587724,21.8884234 Z M18.8547619,11.3999964 C17.669426,11.3999964 16.6996057,12.3698167 16.6996057,13.5551526 C16.6996057,14.7404885 17.669426,15.7103089 18.8547619,15.7103089 C20.0400979,15.7103089 21.0099182,14.7404885 21.0099182,13.5551526 C21.0099182,12.3698167 20.0400979,11.3999964 18.8547619,11.3999964 Z" id="Combined-Shape"></path>
        </g>
    </g>
</svg>