<?xml version="1.0" encoding="UTF-8"?>
<svg width="200px" height="200px" viewBox="0 0 200 200" version="1.1" xmlns="http://www.w3.org/2000/svg" xmlns:xlink="http://www.w3.org/1999/xlink">
    <title>playlist_ideas_highcontrast_light</title>
    <g id="playlist_ideas_highcontrast_light" stroke="none" fill="none" fill-rule="evenodd">
        <path d="M179.488918,2 C186.054674,2 188.463684,2.61293782 190.871568,3.90068803 C193.125283,5.10598808 194.894012,6.87471693 196.099312,9.12843209 C197.387062,11.5363156 198,13.9453261 198,20.5110816 L198,179.488918 C198,186.054674 197.387062,188.463684 196.099312,190.871568 C194.894012,193.125283 193.125283,194.894012 190.871568,196.099312 C188.463684,197.387062 186.054674,198 179.488918,198 L20.5110816,198 C13.9453261,198 11.5363156,197.387062 9.12843209,196.099312 C6.87471693,194.894012 5.10598808,193.125283 3.90068803,190.871568 C2.61293782,188.463684 2,186.054674 2,179.488918 L2,20.5110816 C2,13.9453261 2.61293782,11.5363156 3.90068803,9.12843209 C5.10598808,6.87471693 6.87471693,5.10598808 9.12843209,3.90068803 C11.5363156,2.61293782 13.9453261,2 20.5110816,2 L179.488918,2 Z" id="bg-solid" stroke="#000000" stroke-width="4" fill="#FFFFFF"></path>
        <g id="􀑬" stroke-width="1" transform="translate(64, 64)">
            <path d="M2.547746,18.1235513 C1.8497334,18.1235513 1.25060591,17.8695285 0.750363548,17.3614831 C0.250121183,16.8534376 0,16.2449646 0,15.5360639 C0,14.8507933 0.250121183,14.2600428 0.750363548,13.7638123 C1.25060591,13.2675819 1.8497334,13.0194666 2.547746,13.0194666 L33.4697043,13.0194666 C34.1677169,13.0194666 34.7668444,13.2675819 35.2670868,13.7638123 C35.7673291,14.2600428 36.0174503,14.8507933 36.0174503,15.5360639 C36.0174503,16.2449646 35.7673291,16.8534376 35.2670868,17.3614831 C34.7668444,17.8695285 34.1677169,18.1235513 33.4697043,18.1235513 L2.547746,18.1235513 Z M2.547746,30.7419827 C1.82646631,30.7419827 1.22152206,30.4879599 0.732913233,29.9799145 C0.244304411,29.471869 0,28.863396 0,28.1544953 C0,27.4455947 0.250121183,26.8489366 0.750363548,26.3645212 C1.25060591,25.8801058 1.8497334,25.6378981 2.547746,25.6378981 L33.4697043,25.6378981 C34.1677169,25.6378981 34.7668444,25.8801058 35.2670868,26.3645212 C35.7673291,26.8489366 36.0174503,27.4455947 36.0174503,28.1544953 C36.0174503,28.863396 35.7731459,29.471869 35.2845371,29.9799145 C34.7959283,30.4879599 34.190984,30.7419827 33.4697043,30.7419827 L2.547746,30.7419827 Z M2.547746,43.3604141 C1.82646631,43.3604141 1.22152206,43.1122989 0.732913233,42.6160684 C0.244304411,42.119838 0,41.5172724 0,40.8083718 C0,40.0994711 0.250121183,39.4969056 0.750363548,39.0006751 C1.25060591,38.5044447 1.8497334,38.2563295 2.547746,38.2563295 L33.4697043,38.2563295 C34.1677169,38.2563295 34.7668444,38.5044447 35.2670868,39.0006751 C35.7673291,39.4969056 36.0174503,40.0994711 36.0174503,40.8083718 C36.0174503,41.5172724 35.7731459,42.119838 35.2845371,42.6160684 C34.7959283,43.1122989 34.190984,43.3604141 33.4697043,43.3604141 L2.547746,43.3604141 Z" id="Shape" fill-opacity="0.5" fill="#3C3C43" fill-rule="nonzero"></path>
            <path d="M72,16.4930798 C72,17.1783504 71.8022298,17.7631934 71.4066893,18.2476089 C71.0111488,18.7320243 70.4760058,19.0451221 69.8012603,19.1869022 L53.7469704,22.7668505 C52.9791566,22.9322606 52.5021813,23.1449308 52.3160446,23.404861 C52.1299079,23.6647913 52.0368396,24.2082818 52.0368396,25.0353325 L52.0368396,57.5029819 C52.0368396,60.0313942 51.6238488,62.2171711 50.7978672,64.0603128 C49.9718856,65.9034545 48.8899661,67.4039608 47.5521086,68.5618319 C46.2142511,69.7197029 44.7775085,70.5821987 43.2418808,71.1493192 C41.706253,71.7164397 40.228793,72 38.8095007,72 C35.7615124,72 33.2719341,71.1020592 31.3407659,69.3061776 C29.4095977,67.5102959 28.4440136,65.1827388 28.4440136,62.3235062 C28.4440136,59.5351637 29.3223461,57.2194216 31.0790111,55.37628 C32.8356762,53.5331383 35.5055744,52.2216721 39.0887058,51.4418814 L44.6728066,50.2721953 C46.0920989,49.9650051 46.7319438,49.0079892 46.5923413,47.4011477 L46.52254,8.16349724 C46.52254,5.98953528 47.7789627,4.63080905 50.291808,4.08731856 L68.2656326,0.0820299314 C69.2893844,-0.130640261 70.1677169,0.0702149207 70.9006302,0.684595477 C71.6335434,1.29897603 72,2.13784179 72,3.20119275 L72,16.4930798 Z" id="Path" fill="#000000" fill-rule="nonzero"></path>
        </g>
    </g>
</svg>