<?xml version="1.0" encoding="UTF-8"?>
<svg width="200px" height="200px" viewBox="0 0 200 200" version="1.1" xmlns="http://www.w3.org/2000/svg" xmlns:xlink="http://www.w3.org/1999/xlink">
    <title>playlist_ideas_light</title>
    <defs>
        <linearGradient x1="50%" y1="-2.48949813e-15%" x2="50%" y2="96.1557242%" id="linearGradient-1">
            <stop stop-color="#FFFFFF" offset="0%"></stop>
            <stop stop-color="#FFFFFF" stop-opacity="0" offset="100%"></stop>
        </linearGradient>
    </defs>
    <g id="playlist_ideas_light" stroke="none" fill="none" fill-rule="evenodd">
        <path d="M20.5110816,-5.52448164e-16 L179.488918,8.28672246e-16 C186.621068,-4.81482439e-16 189.207358,0.742604889 191.814766,2.13706163 C194.422173,3.53151837 196.468482,5.57782696 197.862938,8.18523437 C199.257395,10.7926418 200,13.3789317 200,20.5110816 L200,179.488918 C200,186.621068 199.257395,189.207358 197.862938,191.814766 C196.468482,194.422173 194.422173,196.468482 191.814766,197.862938 C189.207358,199.257395 186.621068,200 179.488918,200 L20.5110816,200 C13.3789317,200 10.7926418,199.257395 8.18523437,197.862938 C5.57782696,196.468482 3.53151837,194.422173 2.13706163,191.814766 C0.742604889,189.207358 1.60494146e-16,186.621068 -2.76224082e-16,179.488918 L5.52448164e-16,20.5110816 C-3.20988293e-16,13.3789317 0.742604889,10.7926418 2.13706163,8.18523437 C3.53151837,5.57782696 5.57782696,3.53151837 8.18523437,2.13706163 C10.7926418,0.742604889 13.3789317,3.20988293e-16 20.5110816,-5.52448164e-16 Z" id="bg-solid" fill-opacity="0.1" fill="#FFFFFF" style="mix-blend-mode: normal;"></path>
        <g id="􀑬" stroke-width="1" transform="translate(64, 64)" fill="#FA233B">
            <g id="Group-2" fill-rule="nonzero">
                <path d="M2.547746,18.1235513 C1.8497334,18.1235513 1.25060591,17.8695285 0.750363548,17.3614831 C0.250121183,16.8534376 0,16.2449646 0,15.5360639 C0,14.8507933 0.250121183,14.2600428 0.750363548,13.7638123 C1.25060591,13.2675819 1.8497334,13.0194666 2.547746,13.0194666 L33.4697043,13.0194666 C34.1677169,13.0194666 34.7668444,13.2675819 35.2670868,13.7638123 C35.7673291,14.2600428 36.0174503,14.8507933 36.0174503,15.5360639 C36.0174503,16.2449646 35.7673291,16.8534376 35.2670868,17.3614831 C34.7668444,17.8695285 34.1677169,18.1235513 33.4697043,18.1235513 L2.547746,18.1235513 Z M2.547746,30.7419827 C1.82646631,30.7419827 1.22152206,30.4879599 0.732913233,29.9799145 C0.244304411,29.471869 0,28.863396 0,28.1544953 C0,27.4455947 0.250121183,26.8489366 0.750363548,26.3645212 C1.25060591,25.8801058 1.8497334,25.6378981 2.547746,25.6378981 L33.4697043,25.6378981 C34.1677169,25.6378981 34.7668444,25.8801058 35.2670868,26.3645212 C35.7673291,26.8489366 36.0174503,27.4455947 36.0174503,28.1544953 C36.0174503,28.863396 35.7731459,29.471869 35.2845371,29.9799145 C34.7959283,30.4879599 34.190984,30.7419827 33.4697043,30.7419827 L2.547746,30.7419827 Z M2.547746,43.3604141 C1.82646631,43.3604141 1.22152206,43.1122989 0.732913233,42.6160684 C0.244304411,42.119838 0,41.5172724 0,40.8083718 C0,40.0994711 0.250121183,39.4969056 0.750363548,39.0006751 C1.25060591,38.5044447 1.8497334,38.2563295 2.547746,38.2563295 L33.4697043,38.2563295 C34.1677169,38.2563295 34.7668444,38.5044447 35.2670868,39.0006751 C35.7673291,39.4969056 36.0174503,40.0994711 36.0174503,40.8083718 C36.0174503,41.5172724 35.7731459,42.119838 35.2845371,42.6160684 C34.7959283,43.1122989 34.190984,43.3604141 33.4697043,43.3604141 L2.547746,43.3604141 Z" id="Shape" fill-opacity="0.3"></path>
                <path d="M72,16.4930798 C72,17.1783504 71.8022298,17.7631934 71.4066893,18.2476089 C71.0111488,18.7320243 70.4760058,19.0451221 69.8012603,19.1869022 L53.7469704,22.7668505 C52.9791566,22.9322606 52.5021813,23.1449308 52.3160446,23.404861 C52.1299079,23.6647913 52.0368396,24.2082818 52.0368396,25.0353325 L52.0368396,57.5029819 C52.0368396,60.0313942 51.6238488,62.2171711 50.7978672,64.0603128 C49.9718856,65.9034545 48.8899661,67.4039608 47.5521086,68.5618319 C46.2142511,69.7197029 44.7775085,70.5821987 43.2418808,71.1493192 C41.706253,71.7164397 40.228793,72 38.8095007,72 C35.7615124,72 33.2719341,71.1020592 31.3407659,69.3061776 C29.4095977,67.5102959 28.4440136,65.1827388 28.4440136,62.3235062 C28.4440136,59.5351637 29.3223461,57.2194216 31.0790111,55.37628 C32.8356762,53.5331383 35.5055744,52.2216721 39.0887058,51.4418814 L44.6728066,50.2721953 C46.0920989,49.9650051 46.7319438,49.0079892 46.5923413,47.4011477 L46.52254,8.16349724 C46.52254,5.98953528 47.7789627,4.63080905 50.291808,4.08731856 L68.2656326,0.0820299314 C69.2893844,-0.130640261 70.1677169,0.0702149207 70.9006302,0.684595477 C71.6335434,1.29897603 72,2.13784179 72,3.20119275 L72,16.4930798 Z" id="Path"></path>
            </g>
        </g>
        <path d="M136,80.4930798 C136,81.1783504 135.800214,81.7631934 135.400641,82.2476089 C135.001068,82.7320243 134.46047,83.0451221 133.778846,83.1869022 L117.560897,86.7668505 C116.785256,86.9322606 116.303419,87.1449308 116.115385,87.404861 C115.92735,87.6647913 115.833333,88.2082818 115.833333,89.0353325 L115.833333,121.502982 C115.833333,124.031394 115.416132,126.217171 114.581731,128.060313 C113.747329,129.903454 112.65438,131.403961 111.302885,132.561832 C109.951389,133.719703 108.5,134.582199 106.948718,135.149319 C105.397436,135.71644 103.904915,136 102.471154,136 C99.392094,136 96.8771368,135.102059 94.9262821,133.306178 C92.9754274,131.510296 92,129.182739 92,126.323506 C92,123.535164 92.8872863,121.219422 94.661859,119.37628 C96.4364316,117.533138 99.133547,116.221672 102.753205,115.441881 L108.394231,114.272195 C109.827991,113.965005 110.474359,113.007989 110.333333,111.401148 L110.262821,72.1634972 C110.262821,69.9895353 111.532051,68.630809 114.070513,68.0873186 L132.227564,64.0820299 C133.261752,63.8693597 134.149038,64.0702149 134.889423,64.6845955 C135.629808,65.298976 136,66.1378418 136,67.2011928 L136,80.4930798 Z" id="Gradient" fill="url(#linearGradient-1)" opacity="0.26625279" style="mix-blend-mode: lighten;"></path>
    </g>
</svg>